<?xml version="1.0" encoding="UTF-8" standalone="no"?>
<!-- Created with Inkscape (http://www.inkscape.org/) -->

<svg
   version="1.1"
   id="svg874"
   width="566.008"
   height="300.30801"
   viewBox="0 0 566.008 300.30802"
   sodipodi:docname="sitting.svg"
   inkscape:version="1.4.2 (ebf0e940d0, 2025-05-08)"
   xmlns:inkscape="http://www.inkscape.org/namespaces/inkscape"
   xmlns:sodipodi="http://sodipodi.sourceforge.net/DTD/sodipodi-0.dtd"
   xmlns:xlink="http://www.w3.org/1999/xlink"
   xmlns="http://www.w3.org/2000/svg"
   xmlns:svg="http://www.w3.org/2000/svg">
  <defs
     id="defs878">
    <linearGradient
       inkscape:collect="always"
       id="linearGradient98601">
      <stop
         style="stop-color:#ffffff;stop-opacity:1;"
         offset="0"
         id="stop98597" />
      <stop
         style="stop-color:#ffffff;stop-opacity:0.90210038"
         offset="1"
         id="stop98599" />
    </linearGradient>
    <radialGradient
       inkscape:collect="always"
       xlink:href="#linearGradient98601"
       id="radialGradient98603"
       cx="415.7594"
       cy="498.32187"
       fx="415.7594"
       fy="498.32187"
       r="153.1013"
       gradientTransform="matrix(1.2259953,0.15705087,-0.09716624,0.7585144,-146.76824,-5.65213)"
       gradientUnits="userSpaceOnUse" />
    <filter
       inkscape:collect="always"
       style="color-interpolation-filters:sRGB"
       id="filter1194"
       x="-0.051368152"
       y="-0.075463171"
       width="1.1027363"
       height="1.1509263">
      <feGaussianBlur
         inkscape:collect="always"
         stdDeviation="7.8522603"
         id="feGaussianBlur1196" />
    </filter>
    <filter
       inkscape:collect="always"
       style="color-interpolation-filters:sRGB"
       id="filter1265"
       x="-0.086588964"
       y="-0.2822091"
       width="1.1731779"
       height="1.5644182">
      <feGaussianBlur
         inkscape:collect="always"
         stdDeviation="6.9459767"
         id="feGaussianBlur1267" />
    </filter>
    <filter
       inkscape:collect="always"
       style="color-interpolation-filters:sRGB"
       id="filter1384"
       x="-0.60387092"
       y="-1.1539517"
       width="2.2077418"
       height="3.3079034">
      <feGaussianBlur
         inkscape:collect="always"
         stdDeviation="46.113402"
         id="feGaussianBlur1386" />
    </filter>
  </defs>
  <sodipodi:namedview
     id="namedview876"
     pagecolor="#ffffff"
     bordercolor="#eeeeee"
     borderopacity="1"
     inkscape:pageshadow="0"
     inkscape:pageopacity="1"
     inkscape:pagecheckerboard="false"
     showgrid="false"
     inkscape:zoom="3.3658168"
     inkscape:cx="398.56596"
     inkscape:cy="295.32207"
     inkscape:window-width="1920"
     inkscape:window-height="1131"
     inkscape:window-x="0"
     inkscape:window-y="0"
     inkscape:window-maximized="1"
     inkscape:current-layer="text38925-7-8"
     showguides="true"
     inkscape:guide-bbox="true"
     fit-margin-top="0"
     fit-margin-left="0"
     fit-margin-right="0"
     fit-margin-bottom="0"
     inkscape:showpageshadow="0"
     inkscape:deskcolor="#d1d1d1">
    <sodipodi:guide
       position="335.77586,246.42905"
       orientation="1,0"
       id="guide9303"
       inkscape:locked="false" />
  </sodipodi:namedview>
  <g
     inkscape:groupmode="layer"
     id="layer1"
     inkscape:label="Dessin"
     style="display:none"
     sodipodi:insensitive="true"
     transform="translate(-129.10882,-147.40948)">
    <image
       width="814.08002"
       height="1122.5601"
       preserveAspectRatio="none"
       xlink:href="../../../Documents/Movim/drawings/sitting.png"
       id="image882"
       x="-138.78625"
       y="-109.12682" />
  </g>
  <g
     inkscape:groupmode="layer"
     id="layer2"
     inkscape:label="Box"
     transform="translate(-129.10882,-147.40948)">
    <rect
       style="fill:#192028;fill-opacity:1;stroke:none;stroke-width:3.36153;stroke-linecap:square;stroke-linejoin:round;stroke-miterlimit:4;stroke-dasharray:none;stroke-opacity:1;paint-order:stroke fill markers"
       id="rect17663"
       width="366.86981"
       height="249.73009"
       x="241.03683"
       y="176.88861"
       ry="12.239537" />
    <rect
       style="fill:#192028;fill-opacity:0.156664;stroke:none;stroke-width:3.36153;stroke-linecap:square;stroke-linejoin:round;stroke-miterlimit:4;stroke-dasharray:none;stroke-opacity:1;paint-order:stroke fill markers;filter:url(#filter1194)"
       id="rect17663-3"
       width="366.86981"
       height="249.73009"
       x="241.03683"
       y="176.88861"
       ry="26.102621" />
    <rect
       style="opacity:1;fill:#141a21;fill-opacity:1;stroke:none;stroke-width:2.64567;stroke-linecap:round;stroke-linejoin:round;stroke-miterlimit:4;stroke-dasharray:none;stroke-opacity:1;paint-order:stroke fill markers"
       id="rect30625"
       width="143.27802"
       height="248.25755"
       x="241.03683"
       y="176.88861"
       ry="13.040484" />
    <rect
       style="opacity:1;fill:#141a21;fill-opacity:1;stroke:none;stroke-width:2.64567;stroke-linecap:round;stroke-linejoin:round;stroke-miterlimit:4;stroke-dasharray:none;stroke-opacity:1;paint-order:stroke fill markers"
       id="rect32545"
       width="192.52274"
       height="59.070896"
       x="446.96948"
       y="328.47607"
       ry="6.50418" />
    <rect
       style="opacity:0.346608;mix-blend-mode:normal;fill:#141a21;fill-opacity:1;stroke:none;stroke-width:2.64567;stroke-linecap:round;stroke-linejoin:round;stroke-miterlimit:4;stroke-dasharray:none;stroke-opacity:1;paint-order:stroke fill markers;filter:url(#filter1265)"
       id="rect32545-6"
       width="192.52274"
       height="59.070896"
       x="446.96948"
       y="328.47607"
       ry="6.50418" />
    <g
       aria-label="Hello everyone :) How are you? "
       id="text38925"
       style="font-size:14.6667px;line-height:17.3228px;letter-spacing:0px;word-spacing:0px;fill:#ffffff;stroke-width:1px"
       transform="translate(-1.3332277,-272)">
      <g
         id="text8"
         style="line-height:17.4533px;font-family:Roboto;-inkscape-font-specification:Roboto;stroke-width:17.008;stroke-linecap:round"
         aria-label="Hello everyone!&#10;How are you :) ?">
        <path
           d="m 474.11807,625.10132 h -1.32001 v -4.88401 h -5.36801 v 4.88401 h -1.32 v -10.47203 h 1.32 v 4.42935 h 5.36801 v -4.42935 h 1.32001 z m 5.72,-8.00802 q 1.012,0 1.73067,0.44 0.73333,0.44 1.11467,1.24667 0.396,0.792 0.396,1.86267 v 0.77734 h -5.38268 q 0.0293,1.33467 0.67467,2.03867 0.66,0.68933 1.83334,0.68933 0.748,0 1.32,-0.132 0.58667,-0.14666 1.20267,-0.41067 v 1.12934 q -0.60134,0.264 -1.188,0.38134 -0.58667,0.132 -1.39334,0.132 -1.11467,0 -1.98001,-0.45467 -0.85066,-0.45467 -1.33467,-1.34934 -0.46933,-0.90933 -0.46933,-2.21467 0,-1.29067 0.42533,-2.21467 0.44001,-0.924 1.21734,-1.42267 0.792,-0.49867 1.83334,-0.49867 z m -0.0147,1.056 q -0.924,0 -1.46667,0.60134 -0.528,0.58667 -0.63067,1.64267 h 4.00401 q -0.0147,-0.99734 -0.46933,-1.61334 -0.45467,-0.63067 -1.43734,-0.63067 z m 6.54134,6.95202 h -1.29067 v -11.14669 h 1.29067 z m 3.784,0 h -1.29067 v -11.14669 h 1.29067 z m 9.32801,-3.94534 q 0,1.95067 -0.99733,3.02134 -0.98267,1.07067 -2.66934,1.07067 -1.04134,0 -1.86268,-0.46934 -0.80666,-0.484 -1.276,-1.39334 -0.46933,-0.924 -0.46933,-2.22933 0,-1.95068 0.98267,-3.00668 0.98267,-1.056 2.66934,-1.056 1.07067,0 1.87733,0.484 0.82134,0.46934 1.27601,1.37867 0.46933,0.89467 0.46933,2.20001 z m -5.94001,0 q 0,1.39333 0.54267,2.21467 0.55733,0.80667 1.76,0.80667 1.188,0 1.74534,-0.80667 0.55733,-0.82134 0.55733,-2.21467 0,-1.39334 -0.55733,-2.18534 -0.55734,-0.792 -1.76001,-0.792 -1.20267,0 -1.74533,0.792 -0.54267,0.792 -0.54267,2.18534 z m 14.82803,-4.06268 q 1.012,0 1.73067,0.44 0.73333,0.44 1.11467,1.24667 0.396,0.792 0.396,1.86267 v 0.77734 h -5.38268 q 0.0293,1.33467 0.67467,2.03867 0.66,0.68933 1.83334,0.68933 0.748,0 1.32,-0.132 0.58667,-0.14666 1.20267,-0.41067 v 1.12934 q -0.60134,0.264 -1.188,0.38134 -0.58667,0.132 -1.39334,0.132 -1.11467,0 -1.98001,-0.45467 -0.85066,-0.45467 -1.33466,-1.34934 -0.46934,-0.90933 -0.46934,-2.21467 0,-1.29067 0.42534,-2.21467 0.44,-0.924 1.21733,-1.42267 0.792,-0.49867 1.83334,-0.49867 z m -0.0147,1.056 q -0.924,0 -1.46667,0.60134 -0.528,0.58667 -0.63067,1.64267 h 4.00401 q -0.0147,-0.99734 -0.46933,-1.61334 -0.45467,-0.63067 -1.43734,-0.63067 z m 6.688,6.95202 -2.97734,-7.86135 h 1.37867 l 1.672,4.63467 q 0.11733,0.32267 0.24933,0.71867 0.132,0.396 0.23467,0.76267 0.10267,0.352 0.14667,0.60134 h 0.0587 q 0.0587,-0.24934 0.16133,-0.61601 0.11733,-0.36666 0.24933,-0.76266 0.14667,-0.39601 0.24934,-0.70401 l 1.672,-4.63467 h 1.37867 l -2.99201,7.86135 z m 8.75601,-8.00802 q 1.012,0 1.73067,0.44 0.73333,0.44 1.11467,1.24667 0.396,0.792 0.396,1.86267 v 0.77734 h -5.38268 q 0.0293,1.33467 0.67467,2.03867 0.66,0.68933 1.83334,0.68933 0.748,0 1.32,-0.132 0.58667,-0.14666 1.20267,-0.41067 v 1.12934 q -0.60134,0.264 -1.188,0.38134 -0.58667,0.132 -1.39334,0.132 -1.11467,0 -1.98,-0.45467 -0.85067,-0.45467 -1.33467,-1.34934 -0.46934,-0.90933 -0.46934,-2.21467 0,-1.29067 0.42534,-2.21467 0.44,-0.924 1.21733,-1.42267 0.792,-0.49867 1.83334,-0.49867 z m -0.0147,1.056 q -0.924,0 -1.46667,0.60134 -0.528,0.58667 -0.63067,1.64267 h 4.00401 q -0.0147,-0.99734 -0.46933,-1.61334 -0.45467,-0.63067 -1.43734,-0.63067 z m 8.91734,-1.056 q 0.22,0 0.46934,0.0293 0.264,0.0147 0.45467,0.0587 l -0.16134,1.188 q -0.19066,-0.044 -0.42533,-0.0733 -0.22,-0.0293 -0.42534,-0.0293 -0.60133,0 -1.12933,0.33733 -0.528,0.32267 -0.85067,0.924 -0.308,0.58667 -0.308,1.37867 v 4.19468 h -1.29067 v -7.86135 h 1.056 l 0.14667,1.43733 h 0.0587 q 0.38133,-0.64533 0.98266,-1.11467 0.60134,-0.46933 1.42267,-0.46933 z m 1.15868,0.14667 h 1.37867 l 1.70133,4.47334 q 0.22,0.58667 0.396,1.12934 0.176,0.528 0.26401,1.012 h 0.0587 q 0.088,-0.36667 0.27867,-0.95334 0.19067,-0.60133 0.396,-1.20267 l 1.59867,-4.45867 h 1.39334 l -3.38801,8.94668 q -0.41067,1.11467 -1.07067,1.77467 -0.64533,0.66001 -1.78934,0.66001 -0.352,0 -0.616,-0.044 -0.264,-0.0293 -0.45467,-0.0733 v -1.02667 q 0.16134,0.0293 0.38134,0.0587 0.23466,0.0293 0.484,0.0293 0.67467,0 1.08533,-0.38133 0.42534,-0.38133 0.66001,-1.012 l 0.41066,-1.04134 z m 15.5467,3.91601 q 0,1.95067 -0.99734,3.02134 -0.98266,1.07067 -2.66933,1.07067 -1.04134,0 -1.86268,-0.46934 -0.80666,-0.484 -1.276,-1.39334 -0.46933,-0.924 -0.46933,-2.22933 0,-1.95068 0.98267,-3.00668 0.98266,-1.056 2.66934,-1.056 1.07066,0 1.87733,0.484 0.82134,0.46934 1.27601,1.37867 0.46933,0.89467 0.46933,2.20001 z m -5.94001,0 q 0,1.39333 0.54266,2.21467 0.55734,0.80667 1.76001,0.80667 1.188,0 1.74534,-0.80667 0.55733,-0.82134 0.55733,-2.21467 0,-1.39334 -0.55733,-2.18534 -0.55734,-0.792 -1.76001,-0.792 -1.20267,0 -1.74534,0.792 -0.54266,0.792 -0.54266,2.18534 z m 11.76268,-4.06268 q 1.408,0 2.12667,0.68933 0.71867,0.67467 0.71867,2.20001 v 5.11868 h -1.276 v -5.03068 q 0,-1.892 -1.76001,-1.892 -1.30533,0 -1.804,0.73333 -0.49867,0.73334 -0.49867,2.11201 v 4.07734 h -1.29067 v -7.86135 h 1.04134 l 0.19067,1.07067 h 0.0733 q 0.38133,-0.61601 1.056,-0.90934 0.67467,-0.308 1.42267,-0.308 z m 8.31603,0 q 1.012,0 1.73067,0.44 0.73333,0.44 1.11467,1.24667 0.396,0.792 0.396,1.86267 v 0.77734 h -5.38268 q 0.0293,1.33467 0.67467,2.03867 0.66,0.68933 1.83333,0.68933 0.748,0 1.32001,-0.132 0.58666,-0.14666 1.20267,-0.41067 v 1.12934 q -0.60134,0.264 -1.18801,0.38134 -0.58667,0.132 -1.39333,0.132 -1.11467,0 -1.98001,-0.45467 -0.85067,-0.45467 -1.33467,-1.34934 -0.46933,-0.90933 -0.46933,-2.21467 0,-1.29067 0.42533,-2.21467 0.44,-0.924 1.21734,-1.42267 0.792,-0.49867 1.83334,-0.49867 z m -0.0147,1.056 q -0.924,0 -1.46667,0.60134 -0.528,0.58667 -0.63067,1.64267 h 4.00401 q -0.0147,-0.99734 -0.46933,-1.61334 -0.45467,-0.63067 -1.43734,-0.63067 z m 6.39466,4.00401 h -0.836 l -0.36667,-7.52402 h 1.56934 z m -1.33467,2.15601 q 0,-0.54267 0.264,-0.76267 0.26401,-0.22 0.64534,-0.22 0.36667,0 0.63067,0.22 0.27867,0.22 0.27867,0.76267 0,0.528 -0.27867,0.76266 -0.264,0.23467 -0.63067,0.23467 -0.38133,0 -0.64534,-0.23467 -0.264,-0.23466 -0.264,-0.76266 z"
           id="path9" />
        <path
           d="m 474.11807,642.55462 h -1.32001 v -4.88401 h -5.36801 v 4.88401 h -1.32 V 632.0826 h 1.32 v 4.42934 h 5.36801 v -4.42934 h 1.32001 z m 9.51867,-3.94534 q 0,1.95067 -0.99733,3.02134 -0.98267,1.07067 -2.66934,1.07067 -1.04134,0 -1.86267,-0.46934 -0.80667,-0.484 -1.27601,-1.39333 -0.46933,-0.92401 -0.46933,-2.22934 0,-1.95067 0.98267,-3.00668 0.98267,-1.056 2.66934,-1.056 1.07067,0 1.87734,0.484 0.82133,0.46934 1.276,1.37867 0.46933,0.89467 0.46933,2.20001 z m -5.94001,0 q 0,1.39333 0.54267,2.21467 0.55733,0.80667 1.76,0.80667 1.188,0 1.74534,-0.80667 0.55733,-0.82134 0.55733,-2.21467 0,-1.39334 -0.55733,-2.18534 -0.55734,-0.792 -1.76001,-0.792 -1.20266,0 -1.74533,0.792 -0.54267,0.792 -0.54267,2.18534 z m 12.76002,-0.49867 q -0.19067,-0.60134 -0.33734,-1.17334 -0.132,-0.58667 -0.20533,-0.90933 h -0.0587 q -0.0587,0.32266 -0.19067,0.90933 -0.132,0.572 -0.33733,1.18801 l -1.408,4.41467 h -1.46667 l -2.15601,-7.86135 h 1.33467 l 1.08534,4.19468 q 0.16133,0.63067 0.308,1.276 0.14667,0.64534 0.20533,1.07067 h 0.0587 q 0.0587,-0.24933 0.132,-0.616 0.088,-0.36667 0.19067,-0.76267 0.10266,-0.41067 0.20533,-0.73334 l 1.39334,-4.42934 h 1.408 l 1.34934,4.42934 q 0.16133,0.49867 0.308,1.08534 0.16133,0.58667 0.22,1.012 h 0.0587 q 0.044,-0.36666 0.19067,-1.012 0.16134,-0.64533 0.33734,-1.32 l 1.1,-4.19468 h 1.32 l -2.18534,7.86135 h -1.51067 z m 13.24402,-3.54934 q 1.43734,0 2.12667,0.63067 0.68934,0.63066 0.68934,2.00933 v 5.35335 h -0.93867 l -0.24934,-1.11467 h -0.0587 q -0.51334,0.64533 -1.08534,0.95334 -0.55733,0.308 -1.55467,0.308 -1.07067,0 -1.77467,-0.55734 -0.704,-0.572 -0.704,-1.77467 0,-1.17334 0.924,-1.804 0.924,-0.64534 2.84534,-0.704 l 1.33467,-0.044 v -0.46933 q 0,-0.98267 -0.42533,-1.364 -0.42534,-0.38134 -1.20267,-0.38134 -0.616,0 -1.17334,0.19067 -0.55733,0.176 -1.04133,0.41067 l -0.39601,-0.968 q 0.51334,-0.27867 1.21734,-0.46934 0.704,-0.20533 1.46667,-0.20533 z m 0.38133,4.19467 q -1.46667,0.0587 -2.03867,0.46934 -0.55733,0.41067 -0.55733,1.15867 0,0.66 0.396,0.968 0.41067,0.308 1.04134,0.308 0.99733,0 1.65733,-0.54267 0.66,-0.55733 0.66,-1.70133 v -0.70401 z m 8.53604,-4.20934 q 0.22,0 0.46933,0.0293 0.264,0.0147 0.45467,0.0587 l -0.16133,1.188 q -0.19067,-0.044 -0.42534,-0.0733 -0.22,-0.0293 -0.42533,-0.0293 -0.60134,0 -1.12934,0.33733 -0.528,0.32267 -0.85067,0.924 -0.308,0.58667 -0.308,1.37867 v 4.19468 h -1.29067 v -7.86135 h 1.056 l 0.14667,1.43733 h 0.0587 q 0.38133,-0.64533 0.98267,-1.11466 0.60133,-0.46934 1.42267,-0.46934 z m 5.13334,0 q 1.012,0 1.73067,0.44 0.73333,0.44 1.11467,1.24667 0.396,0.792 0.396,1.86267 v 0.77734 h -5.38268 q 0.0293,1.33467 0.67467,2.03867 0.66,0.68933 1.83333,0.68933 0.74801,0 1.32001,-0.132 0.58666,-0.14666 1.20267,-0.41066 v 1.12933 q -0.60134,0.264 -1.18801,0.38134 -0.58666,0.132 -1.39333,0.132 -1.11467,0 -1.98001,-0.45467 -0.85067,-0.45467 -1.33467,-1.34934 -0.46933,-0.90933 -0.46933,-2.21467 0,-1.29067 0.42533,-2.21467 0.44,-0.924 1.21734,-1.42267 0.792,-0.49867 1.83334,-0.49867 z m -0.0147,1.056 q -0.924,0 -1.46667,0.60134 -0.528,0.58667 -0.63067,1.64267 h 4.00401 q -0.0147,-0.99734 -0.46933,-1.61334 -0.45467,-0.63067 -1.43734,-0.63067 z m 7.83201,-0.90933 h 1.37867 l 1.70133,4.47334 q 0.22,0.58667 0.396,1.12934 0.176,0.528 0.264,1.012 h 0.0587 q 0.088,-0.36667 0.27867,-0.95334 0.19067,-0.60133 0.396,-1.20267 l 1.59867,-4.45867 h 1.39334 l -3.38801,8.94669 q -0.41067,1.11466 -1.07067,1.77467 -0.64533,0.66 -1.78934,0.66 -0.352,0 -0.616,-0.044 -0.264,-0.0293 -0.45467,-0.0733 v -1.02667 q 0.16134,0.0293 0.38134,0.0587 0.23466,0.0293 0.484,0.0293 0.67467,0 1.08533,-0.38133 0.42534,-0.38133 0.66001,-1.012 l 0.41066,-1.04134 z m 15.5467,3.91601 q 0,1.95067 -0.99733,3.02134 -0.98267,1.07067 -2.66934,1.07067 -1.04134,0 -1.86267,-0.46934 -0.80667,-0.484 -1.27601,-1.39333 -0.46933,-0.92401 -0.46933,-2.22934 0,-1.95067 0.98267,-3.00668 0.98267,-1.056 2.66934,-1.056 1.07067,0 1.87734,0.484 0.82133,0.46934 1.276,1.37867 0.46933,0.89467 0.46933,2.20001 z m -5.94001,0 q 0,1.39333 0.54267,2.21467 0.55733,0.80667 1.76,0.80667 1.188,0 1.74534,-0.80667 0.55733,-0.82134 0.55733,-2.21467 0,-1.39334 -0.55733,-2.18534 -0.55734,-0.792 -1.76,-0.792 -1.20267,0 -1.74534,0.792 -0.54267,0.792 -0.54267,2.18534 z m 14.54936,-3.91601 v 7.86135 h -1.056 l -0.19067,-1.04134 h -0.0587 q -0.38133,0.616 -1.056,0.90934 -0.67467,0.27867 -1.43734,0.27867 -1.42267,0 -2.14134,-0.67467 -0.71866,-0.68934 -0.71866,-2.18534 v -5.14801 h 1.30533 v 5.06001 q 0,1.87734 1.74534,1.87734 1.30534,0 1.804,-0.73334 0.51334,-0.73333 0.51334,-2.112 v -4.09201 z m 6.11601,0.792 q 0,-0.55733 0.264,-0.77734 0.26401,-0.22 0.63067,-0.22 0.38134,0 0.64534,0.22 0.27866,0.22001 0.27866,0.77734 0,0.528 -0.27866,0.76267 -0.264,0.23467 -0.64534,0.23467 -0.36666,0 -0.63067,-0.23467 -0.264,-0.23467 -0.264,-0.76267 z m 0,6.27735 q 0,-0.54267 0.264,-0.76267 0.26401,-0.22 0.63067,-0.22 0.38134,0 0.64534,0.22 0.27866,0.22 0.27866,0.76267 0,0.528 -0.27866,0.76267 -0.264,0.23466 -0.64534,0.23466 -0.36666,0 -0.63067,-0.23466 -0.264,-0.23467 -0.264,-0.76267 z m 6.68802,-3.22668 q 0,1.77467 -0.52801,3.41734 -0.51333,1.62801 -1.628,2.91868 h -1.20267 q 1.012,-1.37867 1.52534,-3.00668 0.528,-1.64267 0.528,-3.344 0,-1.74534 -0.528,-3.40268 -0.51334,-1.65734 -1.54001,-3.036 h 1.21734 q 1.11467,1.33466 1.628,3.00667 0.52801,1.65734 0.52801,3.44667 z m 6.45334,0.67467 q 0,-0.55733 0.10267,-0.95333 0.11733,-0.41067 0.38133,-0.77734 0.27867,-0.36667 0.748,-0.76267 0.572,-0.484 0.88,-0.80667 0.32267,-0.32266 0.45467,-0.63066 0.132,-0.308 0.132,-0.74801 0,-0.704 -0.45467,-1.08533 -0.45466,-0.38134 -1.32,-0.38134 -0.71867,0 -1.276,0.19067 -0.55734,0.176 -1.07067,0.42534 l -0.45467,-1.02667 q 0.58667,-0.308 1.29067,-0.51334 0.71867,-0.20533 1.59867,-0.20533 1.39334,0 2.15601,0.68933 0.76267,0.68934 0.76267,1.87734 0,0.66 -0.22001,1.12934 -0.20533,0.45466 -0.60133,0.85067 -0.38133,0.38133 -0.90934,0.82133 -0.484,0.41067 -0.748,0.71867 -0.24933,0.308 -0.33733,0.616 -0.088,0.29333 -0.088,0.71867 v 0.24933 h -1.02667 z m -0.33733,2.55201 q 0,-0.54267 0.24933,-0.76267 0.264,-0.22 0.66,-0.22 0.36667,0 0.63067,0.22 0.264,0.22 0.264,0.76267 0,0.528 -0.264,0.76267 -0.264,0.23466 -0.63067,0.23466 -0.396,0 -0.66,-0.23466 -0.24933,-0.23467 -0.24933,-0.76267 z"
           id="path10" />
      </g>
    </g>
    <g
       style="fill:#000000"
       id="g52997"
       transform="matrix(0.69952663,0,0,0.69952663,536.80519,104.0668)">
      <g
         id="g53722"
         transform="matrix(0.80557419,0,0,0.80557419,119.03963,378.1907)">
        <path
           d="M 0,0 H 24 V 24 H 0 Z"
           fill="none"
           id="path52985" />
        <path
           d="m 18,7 -1.41,-1.41 -6.34,6.34 1.41,1.41 z M 22.24,5.59 11.66,16.17 7.48,12 6.07,13.41 11.66,19 23.66,7 Z M 0.41,13.41 6,19 7.41,17.59 1.83,12 Z"
           id="path52987"
           style="opacity:0.549459;fill:#ffffff;fill-opacity:1" />
      </g>
    </g>
    <rect
       style="fill:#141a21;fill-opacity:1;stroke:none;stroke-width:2.38937;stroke-linecap:round;stroke-linejoin:round;stroke-miterlimit:4;stroke-dasharray:none;stroke-opacity:1;paint-order:stroke fill markers"
       id="rect32545-3"
       width="157.02795"
       height="59.070896"
       x="450.73322"
       y="250.43457"
       ry="6.50418" />
    <path
       style="fill:#141a21;fill-opacity:1;fill-rule:evenodd;stroke:none;stroke-width:1px;stroke-linecap:butt;stroke-linejoin:miter;stroke-opacity:1"
       d="M 459.69601,250.40539 H 432.9105 c 13.63304,3.48815 18.19311,11.62448 18.53744,22.26207 z"
       id="path34642-6"
       sodipodi:nodetypes="cccc" />
    <path
       style="fill:#141a21;fill-opacity:1;fill-rule:evenodd;stroke:none;stroke-width:1px;stroke-linecap:butt;stroke-linejoin:miter;stroke-opacity:1"
       d="m 631.26833,328.54553 h 26.78551 c -13.63304,3.48815 -18.19311,11.62448 -18.53744,22.26207 z"
       id="path34642-6-6"
       sodipodi:nodetypes="cccc" />
    <path
       style="fill:#141a21;fill-opacity:1;fill-rule:evenodd;stroke:none;stroke-width:1px;stroke-linecap:butt;stroke-linejoin:miter;stroke-opacity:1"
       d="m 458.2711,194.60526 h -26.78551 c 13.63304,3.48815 18.19311,11.62448 18.53744,22.26207 z"
       id="path34642-6-3"
       sodipodi:nodetypes="cccc" />
    <circle
       style="opacity:1;fill:#ff9800;fill-opacity:1;stroke:none;stroke-width:2.64567;stroke-linecap:round;stroke-linejoin:round;stroke-miterlimit:4;stroke-dasharray:none;stroke-opacity:1;paint-order:stroke fill markers"
       id="path56398"
       cx="677.15881"
       cy="346.7774"
       r="17.958248" />
    <circle
       style="opacity:1;fill:#cddc39;fill-opacity:1;stroke:none;stroke-width:2.64567;stroke-linecap:round;stroke-linejoin:round;stroke-miterlimit:4;stroke-dasharray:none;stroke-opacity:1;paint-order:stroke fill markers"
       id="path56398-1"
       cx="412.12518"
       cy="268.39954"
       r="17.958248" />
    <rect
       style="fill:#141a21;fill-opacity:1;stroke:none;stroke-width:1.91301;stroke-linecap:round;stroke-linejoin:round;stroke-miterlimit:4;stroke-dasharray:none;stroke-opacity:1;paint-order:stroke fill markers"
       id="rect32545-3-6"
       width="157.02795"
       height="37.865208"
       x="450.03448"
       y="194.60358"
       ry="4.1692634" />
    <g
       aria-label="Oh, you're here ? "
       id="text38925-7-8"
       style="font-size:14.6667px;line-height:17.3228px;letter-spacing:0px;word-spacing:0px;fill:#ffffff;stroke-width:1px"
       transform="translate(0,-272)">
      <path
         style="line-height:1.32327px;font-family:Roboto;-inkscape-font-specification:Roboto;stroke-width:17.008;stroke-linecap:round"
         d="m 474.44217,486.10601 q 0,1.628 -0.55734,2.84534 -0.54267,1.20267 -1.61334,1.87734 -1.07067,0.67467 -2.65467,0.67467 -1.628,0 -2.71334,-0.67467 -1.07067,-0.67467 -1.59867,-1.89201 -0.528,-1.21733 -0.528,-2.84534 0,-1.61333 0.528,-2.816 0.528,-1.20267 1.59867,-1.87734 1.08534,-0.67467 2.72801,-0.67467 1.56933,0 2.64,0.67467 1.07067,0.66 1.61334,1.87734 0.55734,1.20267 0.55734,2.83067 z m -8.27202,0 q 0,1.98001 0.836,3.12401 0.836,1.12933 2.61067,1.12933 1.78934,0 2.61067,-1.12933 0.82134,-1.144 0.82134,-3.12401 0,-1.98 -0.82134,-3.09467 -0.82133,-1.12934 -2.596,-1.12934 -1.77467,0 -2.62534,1.12934 -0.836,1.11467 -0.836,3.09467 z m 11.70403,-2.62534 q 0,0.58667 -0.0733,1.1 h 0.088 q 0.38134,-0.60133 1.02667,-0.90933 0.66,-0.308 1.42267,-0.308 1.43734,0 2.15601,0.68933 0.71866,0.67467 0.71866,2.18534 v 5.11868 h -1.276 v -5.03068 q 0,-1.892 -1.76,-1.892 -1.32001,0 -1.81867,0.748 -0.484,0.73333 -0.484,2.112 v 4.06268 h -1.29067 V 480.21 h 1.29067 z m 9.34268,6.33602 q -0.19066,0.77733 -0.55733,1.70133 -0.352,0.93867 -0.704,1.73067 h -0.95334 q 0.20533,-0.836 0.41067,-1.83333 0.22,-0.99734 0.32267,-1.76001 h 1.37867 z m 4.94268,-6.32135 h 1.37867 l 1.70134,4.47334 q 0.22,0.58667 0.396,1.12934 0.176,0.528 0.264,1.012 h 0.0587 q 0.088,-0.36667 0.27867,-0.95334 0.19067,-0.60133 0.396,-1.20267 l 1.59867,-4.45867 h 1.39334 l -3.38801,8.94669 q -0.41067,1.11466 -1.07067,1.77467 -0.64533,0.66 -1.78933,0.66 -0.35201,0 -0.61601,-0.044 -0.264,-0.0293 -0.45466,-0.0733 v -1.02667 q 0.16133,0.0293 0.38133,0.0587 0.23467,0.0293 0.484,0.0293 0.67467,0 1.08534,-0.38134 0.42533,-0.38133 0.66,-1.012 l 0.41067,-1.04134 z m 15.54671,3.91601 q 0,1.95067 -0.99734,3.02134 -0.98267,1.07067 -2.66934,1.07067 -1.04134,0 -1.86267,-0.46934 -0.80667,-0.484 -1.276,-1.39333 -0.46934,-0.92401 -0.46934,-2.22934 0,-1.95067 0.98267,-3.00668 0.98267,-1.056 2.66934,-1.056 1.07067,0 1.87734,0.484 0.82133,0.46934 1.276,1.37867 0.46934,0.89467 0.46934,2.20001 z m -5.94002,0 q 0,1.39333 0.54267,2.21467 0.55733,0.80667 1.76,0.80667 1.18801,0 1.74534,-0.80667 0.55734,-0.82134 0.55734,-2.21467 0,-1.39334 -0.55734,-2.18534 -0.55733,-0.792 -1.76,-0.792 -1.20267,0 -1.74534,0.792 -0.54267,0.792 -0.54267,2.18534 z m 14.54936,-3.91601 v 7.86135 h -1.056 l -0.19067,-1.04134 h -0.0587 q -0.38134,0.61601 -1.05601,0.90934 -0.67466,0.27867 -1.43733,0.27867 -1.42267,0 -2.14134,-0.67467 -0.71867,-0.68934 -0.71867,-2.18534 v -5.14801 h 1.30534 v 5.06001 q 0,1.87734 1.74533,1.87734 1.30534,0 1.80401,-0.73334 0.51333,-0.73333 0.51333,-2.112 v -4.09201 z m 3.59335,-2.61067 -0.29334,3.784 h -0.80667 l -0.29333,-3.784 z m 5.42667,2.464 q 0.22,0 0.46933,0.0293 0.264,0.0147 0.45467,0.0587 l -0.16133,1.188 q -0.19067,-0.044 -0.42534,-0.0733 -0.22,-0.0293 -0.42533,-0.0293 -0.60134,0 -1.12934,0.33733 -0.528,0.32267 -0.85067,0.924 -0.308,0.58667 -0.308,1.37867 v 4.19468 h -1.29067 v -7.86135 h 1.05601 l 0.14666,1.43733 h 0.0587 q 0.38133,-0.64533 0.98267,-1.11466 0.60133,-0.46934 1.42267,-0.46934 z m 5.13334,0 q 1.012,0 1.73067,0.44 0.73333,0.44 1.11467,1.24667 0.396,0.792 0.396,1.86267 v 0.77734 h -5.38268 q 0.0293,1.33467 0.67467,2.03867 0.66,0.68933 1.83334,0.68933 0.748,0 1.32,-0.132 0.58667,-0.14666 1.20267,-0.41066 v 1.12933 q -0.60134,0.264 -1.188,0.38134 -0.58667,0.132 -1.39334,0.132 -1.11467,0 -1.98001,-0.45467 -0.85066,-0.45467 -1.33467,-1.34934 -0.46933,-0.90933 -0.46933,-2.21467 0,-1.29067 0.42533,-2.21467 0.44001,-0.924 1.21734,-1.42267 0.792,-0.49867 1.83334,-0.49867 z m -0.0147,1.056 q -0.924,0 -1.46667,0.60134 -0.528,0.58667 -0.63067,1.64267 h 4.00401 q -0.0147,-0.99734 -0.46933,-1.61334 -0.45467,-0.63067 -1.43734,-0.63067 z m 10.35468,-0.924 q 0,0.58667 -0.0733,1.1 h 0.088 q 0.38133,-0.60133 1.02667,-0.90933 0.66,-0.308 1.42267,-0.308 1.43733,0 2.156,0.68933 0.71867,0.67467 0.71867,2.18534 v 5.11868 h -1.276 v -5.03068 q 0,-1.892 -1.76001,-1.892 -1.32,0 -1.81867,0.748 -0.484,0.73333 -0.484,2.112 v 4.06268 h -1.29067 V 480.21 h 1.29067 z m 10.80936,-0.132 q 1.01201,0 1.73067,0.44 0.73334,0.44 1.11467,1.24667 0.396,0.792 0.396,1.86267 v 0.77734 h -5.38267 q 0.0293,1.33467 0.67466,2.03867 0.66001,0.68933 1.83334,0.68933 0.748,0 1.32,-0.132 0.58667,-0.14666 1.20267,-0.41066 v 1.12933 q -0.60133,0.264 -1.188,0.38134 -0.58667,0.132 -1.39334,0.132 -1.11466,0 -1.98,-0.45467 -0.85067,-0.45467 -1.33467,-1.34934 -0.46933,-0.90933 -0.46933,-2.21467 0,-1.29067 0.42533,-2.21467 0.44,-0.924 1.21734,-1.42267 0.792,-0.49867 1.83333,-0.49867 z m -0.0147,1.056 q -0.924,0 -1.46667,0.60134 -0.528,0.58667 -0.63067,1.64267 h 4.00401 q -0.0147,-0.99734 -0.46934,-1.61334 -0.45466,-0.63067 -1.43733,-0.63067 z m 8.91734,-1.056 q 0.22,0 0.46933,0.0293 0.264,0.0147 0.45467,0.0587 l -0.16134,1.188 q -0.19066,-0.044 -0.42533,-0.0733 -0.22,-0.0293 -0.42533,-0.0293 -0.60134,0 -1.12934,0.33733 -0.528,0.32267 -0.85067,0.924 -0.308,0.58667 -0.308,1.37867 v 4.19468 h -1.29067 v -7.86135 h 1.056 l 0.14667,1.43733 h 0.0587 q 0.38133,-0.64533 0.98267,-1.11466 0.60133,-0.46934 1.42267,-0.46934 z m 5.13333,0 q 1.01201,0 1.73068,0.44 0.73333,0.44 1.11466,1.24667 0.39601,0.792 0.39601,1.86267 v 0.77734 H 563.513 q 0.0293,1.33467 0.67466,2.03867 0.66001,0.68933 1.83334,0.68933 0.748,0 1.32001,-0.132 0.58666,-0.14666 1.20266,-0.41066 v 1.12933 q -0.60133,0.264 -1.188,0.38134 -0.58667,0.132 -1.39333,0.132 -1.11467,0 -1.98001,-0.45467 -0.85067,-0.45467 -1.33467,-1.34934 -0.46933,-0.90933 -0.46933,-2.21467 0,-1.29067 0.42533,-2.21467 0.44,-0.924 1.21734,-1.42267 0.792,-0.49867 1.83333,-0.49867 z m -0.0147,1.056 q -0.924,0 -1.46667,0.60134 -0.528,0.58667 -0.63067,1.64267 h 4.00401 q -0.0147,-0.99734 -0.46934,-1.61334 -0.45466,-0.63067 -1.43733,-0.63067 z m 6.05734,3.60801 q 0,-0.55733 0.10266,-0.95333 0.11734,-0.41067 0.38134,-0.77734 0.27867,-0.36667 0.748,-0.76267 0.572,-0.484 0.88,-0.80667 0.32267,-0.32266 0.45467,-0.63066 0.132,-0.308 0.132,-0.74801 0,-0.704 -0.45467,-1.08533 -0.45467,-0.38134 -1.32,-0.38134 -0.71867,0 -1.276,0.19067 -0.55734,0.176 -1.07067,0.42534 l -0.45467,-1.02667 q 0.58667,-0.308 1.29067,-0.51334 0.71867,-0.20533 1.59867,-0.20533 1.39334,0 2.156,0.68933 0.76267,0.68934 0.76267,1.87734 0,0.66 -0.22,1.12934 -0.20533,0.45466 -0.60133,0.85067 -0.38134,0.38133 -0.90934,0.82133 -0.484,0.41067 -0.748,0.71867 -0.24933,0.308 -0.33733,0.616 -0.088,0.29333 -0.088,0.71867 v 0.24933 h -1.02667 z m -0.33734,2.55201 q 0,-0.54267 0.24934,-0.76267 0.264,-0.22 0.66,-0.22 0.36667,0 0.63067,0.22 0.264,0.22 0.264,0.76267 0,0.528 -0.264,0.76267 -0.264,0.23466 -0.63067,0.23466 -0.396,0 -0.66,-0.23466 -0.24934,-0.23467 -0.24934,-0.76267 z"
         id="text1"
         aria-label="Oh, you're here?" />
      <g
         id="text6"
         style="line-height:17.4533px;font-family:Roboto;-inkscape-font-specification:Roboto;stroke-width:17.008;stroke-linecap:round"
         aria-label="Yes I'm back!&#10;It was super fun!">
        <path
           d="m 469.23613,540.95815 2.728,-5.14801 h 1.42267 l -3.49067,6.40935 v 4.06268 h -1.32001 v -4.00401 l -3.49067,-6.46802 h 1.43734 z m 7.70002,-2.684 q 1.01201,0 1.73067,0.44 0.73334,0.44 1.11467,1.24667 0.396,0.792 0.396,1.86267 v 0.77733 h -5.38267 q 0.0293,1.33467 0.67466,2.03868 0.66001,0.68933 1.83334,0.68933 0.748,0 1.32,-0.132 0.58667,-0.14667 1.20267,-0.41067 v 1.12934 q -0.60133,0.264 -1.188,0.38133 -0.58667,0.132 -1.39334,0.132 -1.11466,0 -1.98,-0.45467 -0.85067,-0.45466 -1.33467,-1.34933 -0.46933,-0.90934 -0.46933,-2.21467 0,-1.29067 0.42533,-2.21468 0.44,-0.924 1.21734,-1.42267 0.792,-0.49866 1.83333,-0.49866 z m -0.0147,1.056 q -0.924,0 -1.46667,0.60133 -0.528,0.58667 -0.63067,1.64267 h 4.00401 q -0.0147,-0.99733 -0.46934,-1.61333 -0.45466,-0.63067 -1.43733,-0.63067 z m 10.36934,4.78134 q 0,1.14401 -0.85067,1.73067 -0.85066,0.58667 -2.288,0.58667 -0.82134,0 -1.42267,-0.132 -0.58667,-0.132 -1.04134,-0.36667 v -1.17333 q 0.46934,0.23467 1.12934,0.44 0.67467,0.19067 1.364,0.19067 0.98267,0 1.42267,-0.308 0.44,-0.32267 0.44,-0.85067 0,-0.29334 -0.16133,-0.528 -0.16133,-0.23467 -0.58667,-0.46934 -0.41067,-0.23467 -1.188,-0.528 -0.76267,-0.29333 -1.30534,-0.58667 -0.54267,-0.29333 -0.836,-0.704 -0.29333,-0.41067 -0.29333,-1.056 0,-0.99734 0.80666,-1.54 0.82134,-0.54267 2.14134,-0.54267 0.71867,0 1.33467,0.14666 0.63067,0.132 1.17334,0.38134 l -0.44,1.02667 q -0.49867,-0.20534 -1.04134,-0.352 -0.54267,-0.14667 -1.11467,-0.14667 -0.792,0 -1.21733,0.264 -0.41067,0.24933 -0.41067,0.68934 0,0.32266 0.19067,0.55733 0.19066,0.22 0.63066,0.44 0.45467,0.20533 1.20267,0.49867 0.74801,0.27867 1.27601,0.572 0.528,0.29333 0.80667,0.71867 0.27866,0.41067 0.27866,1.04133 z m 8.84403,2.17068 h -3.78401 v -0.76267 l 1.232,-0.27867 v -8.37469 l -1.232,-0.29333 v -0.76267 h 3.78401 v 0.76267 l -1.232,0.29333 v 8.37469 l 1.232,0.27867 z m 2.94801,-10.47203 -0.29333,3.78401 h -0.80667 l -0.29333,-3.78401 z m 10.38403,2.46401 q 1.33467,0 1.99467,0.68933 0.66,0.67467 0.66,2.20001 v 5.11868 h -1.276 v -5.06002 q 0,-1.86267 -1.59867,-1.86267 -1.14401,0 -1.64267,0.66 -0.48401,0.66001 -0.48401,1.92134 v 4.34135 h -1.276 v -5.06002 q 0,-1.86267 -1.61334,-1.86267 -1.188,0 -1.64267,0.73334 -0.45466,0.73333 -0.45466,2.112 v 4.07735 h -1.29067 v -7.86136 h 1.04133 l 0.19067,1.07067 h 0.0733 q 0.36667,-0.616 0.98267,-0.90933 0.63067,-0.308 1.33467,-0.308 1.84801,0 2.40534,1.32 h 0.0733 q 0.396,-0.67467 1.07067,-0.99734 0.68934,-0.32266 1.45201,-0.32266 z m 10.19334,-0.42534 q 0,0.49867 -0.0293,0.93867 -0.0147,0.42534 -0.044,0.67467 h 0.0733 q 0.33734,-0.49867 0.92401,-0.836 0.58667,-0.33734 1.51067,-0.33734 1.46667,0 2.34667,1.02667 0.89467,1.01201 0.89467,3.03601 0,2.024 -0.89467,3.05067 -0.89467,1.02667 -2.34667,1.02667 -0.924,0 -1.51067,-0.33733 -0.58667,-0.33734 -0.92401,-0.80667 h -0.10266 l -0.264,0.99734 h -0.924 v -11.1467 h 1.29066 z m 2.21468,1.51067 q -1.24667,0 -1.73067,0.71867 -0.48401,0.71867 -0.48401,2.22934 v 0.0587 q 0,1.452 0.46934,2.22933 0.484,0.76267 1.77467,0.76267 1.056,0 1.56934,-0.77733 0.528,-0.77734 0.528,-2.24401 0,-2.97734 -2.12667,-2.97734 z m 8.49201,-1.07067 q 1.43734,0 2.12668,0.63067 0.68933,0.63067 0.68933,2.00934 v 5.35335 h -0.93867 l -0.24933,-1.11467 h -0.0587 q -0.51333,0.64533 -1.08533,0.95333 -0.55734,0.308 -1.55467,0.308 -1.07067,0 -1.77467,-0.55733 -0.70401,-0.572 -0.70401,-1.77467 0,-1.17334 0.92401,-1.80401 0.924,-0.64533 2.84534,-0.704 l 1.33467,-0.044 v -0.46933 q 0,-0.98267 -0.42534,-1.36401 -0.42533,-0.38133 -1.20267,-0.38133 -0.616,0 -1.17333,0.19067 -0.55734,0.176 -1.04134,0.41066 l -0.396,-0.968 q 0.51333,-0.27867 1.21733,-0.46933 0.70401,-0.20534 1.46667,-0.20534 z m 0.38134,4.19468 q -1.46667,0.0587 -2.03867,0.46933 -0.55734,0.41067 -0.55734,1.15867 0,0.66001 0.396,0.96801 0.41067,0.308 1.04134,0.308 0.99734,0 1.65734,-0.54267 0.66,-0.55734 0.66,-1.70134 v -0.704 z m 8.0227,3.94534 q -1.04134,0 -1.86267,-0.42533 -0.80667,-0.42534 -1.27601,-1.32 -0.45467,-0.89467 -0.45467,-2.28801 0,-1.452 0.48401,-2.36134 0.484,-0.90933 1.30533,-1.33467 0.836,-0.42533 1.89201,-0.42533 0.60133,0 1.15867,0.132 0.55733,0.11733 0.90933,0.29333 l -0.396,1.07067 q -0.352,-0.132 -0.82133,-0.24933 -0.46934,-0.11734 -0.88001,-0.11734 -2.31734,0 -2.31734,2.97734 0,1.42267 0.55734,2.18534 0.572,0.748 1.68667,0.748 0.64533,0 1.12934,-0.132 0.49866,-0.132 0.90933,-0.32266 v 1.144 q -0.396,0.20533 -0.88,0.308 -0.46934,0.11733 -1.144,0.11733 z m 5.16267,-5.47068 q 0,0.23467 -0.0293,0.616 -0.0147,0.38134 -0.0293,0.66001 h 0.0587 q 0.088,-0.11734 0.264,-0.33734 0.176,-0.22 0.352,-0.44 0.19067,-0.23467 0.32267,-0.38133 l 2.508,-2.65468 h 1.51067 l -3.18267,3.35868 3.40267,4.50268 h -1.55467 l -2.728,-3.66668 -0.89467,0.77734 v 2.88934 h -1.27601 v -11.1467 h 1.27601 z m 7.70002,2.37601 h -0.836 l -0.36667,-7.52402 h 1.56934 z m -1.33467,2.156 q 0,-0.54266 0.264,-0.76266 0.264,-0.22001 0.64534,-0.22001 0.36666,0 0.63066,0.22001 0.27867,0.22 0.27867,0.76266 0,0.528 -0.27867,0.76267 -0.264,0.23467 -0.63066,0.23467 -0.38134,0 -0.64534,-0.23467 -0.264,-0.23467 -0.264,-0.76267 z"
           id="path11" />
        <path
           d="m 469.45613,563.73547 h -3.78401 v -0.76267 l 1.232,-0.27867 v -8.37469 l -1.232,-0.29333 v -0.76267 h 3.78401 v 0.76267 l -1.23201,0.29333 v 8.37469 l 1.23201,0.27867 z m 4.47335,-0.90934 q 0.29333,0 0.60133,-0.044 0.30801,-0.0587 0.49867,-0.11733 v 0.98267 q -0.20533,0.10266 -0.58667,0.16133 -0.38133,0.0733 -0.73333,0.0733 -0.616,0 -1.144,-0.20533 -0.51334,-0.22 -0.83601,-0.748 -0.32266,-0.528 -0.32266,-1.48134 v -4.57601 h -1.11467 v -0.616 l 1.12933,-0.51334 0.51334,-1.672 h 0.76267 v 1.804 h 2.27334 v 0.99734 h -2.27334 v 4.54668 q 0,0.71867 0.33733,1.07067 0.352,0.33733 0.89467,0.33733 z m 11.55736,-3.53467 q -0.19066,-0.60134 -0.33733,-1.17334 -0.132,-0.58667 -0.20533,-0.90934 h -0.0587 q -0.0587,0.32267 -0.19067,0.90934 -0.132,0.572 -0.33733,1.188 l -1.40801,4.41468 h -1.46667 l -2.156,-7.86135 h 1.33467 l 1.08534,4.19467 q 0.16133,0.63067 0.308,1.27601 0.14666,0.64533 0.20533,1.07067 h 0.0587 q 0.0587,-0.24934 0.132,-0.616 0.088,-0.36667 0.19066,-0.76267 0.10267,-0.41067 0.20534,-0.73334 l 1.39333,-4.42934 h 1.40801 l 1.34933,4.42934 q 0.16134,0.49867 0.308,1.08534 0.16134,0.58667 0.22001,1.012 h 0.0587 q 0.044,-0.36667 0.19067,-1.012 0.16133,-0.64534 0.33733,-1.32001 l 1.10001,-4.19467 h 1.32 l -2.18534,7.86135 h -1.51067 z m 9.43068,-3.54935 q 1.43734,0 2.12667,0.63067 0.68934,0.63067 0.68934,2.00934 v 5.35335 h -0.93867 l -0.24933,-1.11467 h -0.0587 q -0.51334,0.64533 -1.08534,0.95333 -0.55733,0.308 -1.55467,0.308 -1.07067,0 -1.77467,-0.55733 -0.704,-0.572 -0.704,-1.77467 0,-1.17334 0.924,-1.80401 0.924,-0.64533 2.84534,-0.704 l 1.33467,-0.044 v -0.46933 q 0,-0.98267 -0.42533,-1.36401 -0.42534,-0.38133 -1.20267,-0.38133 -0.616,0 -1.17334,0.19067 -0.55733,0.176 -1.04133,0.41067 l -0.396,-0.96801 q 0.51333,-0.27866 1.21733,-0.46933 0.704,-0.20534 1.46667,-0.20534 z m 0.38134,4.19468 q -1.46667,0.0587 -2.03868,0.46934 -0.55733,0.41066 -0.55733,1.15866 0,0.66001 0.396,0.96801 0.41067,0.308 1.04134,0.308 0.99733,0 1.65733,-0.54267 0.66001,-0.55733 0.66001,-1.70134 v -0.704 z m 9.98803,1.628 q 0,1.14401 -0.85067,1.73068 -0.85067,0.58666 -2.288,0.58666 -0.82134,0 -1.42267,-0.132 -0.58667,-0.132 -1.04134,-0.36666 v -1.17334 q 0.46934,0.23467 1.12934,0.44 0.67467,0.19067 1.364,0.19067 0.98267,0 1.42267,-0.308 0.44,-0.32267 0.44,-0.85067 0,-0.29334 -0.16133,-0.528 -0.16134,-0.23467 -0.58667,-0.46934 -0.41067,-0.23466 -1.188,-0.528 -0.76267,-0.29333 -1.30534,-0.58667 -0.54267,-0.29333 -0.836,-0.704 -0.29334,-0.41067 -0.29334,-1.056 0,-0.99734 0.80667,-1.54 0.82134,-0.54267 2.14134,-0.54267 0.71867,0 1.33467,0.14666 0.63067,0.13201 1.17334,0.38134 l -0.44,1.02667 q -0.49867,-0.20534 -1.04134,-0.352 -0.54267,-0.14667 -1.11467,-0.14667 -0.792,0 -1.21733,0.264 -0.41067,0.24933 -0.41067,0.68934 0,0.32266 0.19066,0.55733 0.19067,0.22 0.63067,0.44 0.45467,0.20534 1.20267,0.49867 0.748,0.27867 1.27601,0.572 0.528,0.29333 0.80666,0.71867 0.27867,0.41067 0.27867,1.04133 z m 10.8387,0 q 0,1.14401 -0.85067,1.73068 -0.85067,0.58666 -2.28801,0.58666 -0.82133,0 -1.42267,-0.132 -0.58667,-0.132 -1.04133,-0.36666 v -1.17334 q 0.46933,0.23467 1.12933,0.44 0.67467,0.19067 1.36401,0.19067 0.98267,0 1.42267,-0.308 0.44,-0.32267 0.44,-0.85067 0,-0.29334 -0.16134,-0.528 -0.16133,-0.23467 -0.58666,-0.46934 -0.41067,-0.23466 -1.18801,-0.528 -0.76267,-0.29333 -1.30533,-0.58667 -0.54267,-0.29333 -0.83601,-0.704 -0.29333,-0.41067 -0.29333,-1.056 0,-0.99734 0.80667,-1.54 0.82133,-0.54267 2.14134,-0.54267 0.71867,0 1.33467,0.14666 0.63066,0.13201 1.17333,0.38134 l -0.44,1.02667 q -0.49867,-0.20534 -1.04133,-0.352 -0.54267,-0.14667 -1.11467,-0.14667 -0.792,0 -1.21734,0.264 -0.41067,0.24933 -0.41067,0.68934 0,0.32266 0.19067,0.55733 0.19067,0.22 0.63067,0.44 0.45467,0.20534 1.20267,0.49867 0.748,0.27867 1.276,0.572 0.528,0.29333 0.80667,0.71867 0.27867,0.41067 0.27867,1.04133 z m 8.47735,-5.69068 v 7.86136 h -1.056 l -0.19067,-1.04134 h -0.0587 q -0.38134,0.616 -1.05601,0.90934 -0.67466,0.27866 -1.43733,0.27866 -1.42267,0 -2.14134,-0.67466 -0.71867,-0.68934 -0.71867,-2.18534 v -5.14802 h 1.30534 v 5.06002 q 0,1.87733 1.74533,1.87733 1.30534,0 1.80401,-0.73333 0.51333,-0.73334 0.51333,-2.11201 v -4.09201 z m 6.23335,-0.14666 q 1.452,0 2.33201,1.012 0.89467,1.012 0.89467,3.05067 0,2.00934 -0.89467,3.05068 -0.88001,1.04133 -2.34668,1.04133 -0.90933,0 -1.51067,-0.33733 -0.58666,-0.352 -0.924,-0.80667 h -0.088 q 0.0293,0.24933 0.0587,0.63067 0.0293,0.38133 0.0293,0.66 v 3.22667 h -1.29067 v -11.38136 h 1.05601 l 0.176,1.07067 h 0.0587 q 0.352,-0.51333 0.924,-0.86533 0.57201,-0.352 1.52534,-0.352 z m -0.23467,1.08533 q -1.20267,0 -1.70133,0.67467 -0.484,0.67467 -0.51334,2.05334 v 0.24933 q 0,1.45201 0.46934,2.24401 0.484,0.77733 1.77467,0.77733 0.71867,0 1.17333,-0.396 0.46934,-0.396 0.68934,-1.07067 0.23467,-0.68933 0.23467,-1.56933 0,-1.34934 -0.52801,-2.15601 -0.51333,-0.80667 -1.59867,-0.80667 z m 8.55069,-1.08533 q 1.012,0 1.73067,0.44 0.73333,0.44 1.11467,1.24667 0.396,0.792 0.396,1.86267 v 0.77733 h -5.38268 q 0.0293,1.33467 0.67467,2.03868 0.66,0.68933 1.83333,0.68933 0.748,0 1.32001,-0.132 0.58666,-0.14667 1.20267,-0.41067 v 1.12934 q -0.60134,0.264 -1.18801,0.38133 -0.58667,0.132 -1.39333,0.132 -1.11467,0 -1.98001,-0.45466 -0.85067,-0.45467 -1.33467,-1.34934 -0.46933,-0.90934 -0.46933,-2.21467 0,-1.29067 0.42533,-2.21467 0.44,-0.92401 1.21734,-1.42267 0.792,-0.49867 1.83334,-0.49867 z m -0.0147,1.056 q -0.924,0 -1.46667,0.60134 -0.528,0.58666 -0.63067,1.64267 h 4.00401 q -0.0147,-0.99734 -0.46933,-1.61334 -0.45467,-0.63067 -1.43734,-0.63067 z m 8.91734,-1.056 q 0.22,0 0.46934,0.0293 0.264,0.0147 0.45467,0.0587 l -0.16134,1.188 q -0.19066,-0.044 -0.42533,-0.0733 -0.22,-0.0293 -0.42534,-0.0293 -0.60133,0 -1.12933,0.33734 -0.528,0.32267 -0.85067,0.924 -0.308,0.58667 -0.308,1.37867 v 4.19468 h -1.29067 v -7.86136 h 1.056 l 0.14667,1.43734 h 0.0587 q 0.38133,-0.64533 0.98266,-1.11467 0.60134,-0.46933 1.42267,-0.46933 z m 9.82669,1.144 h -1.98 v 6.86402 H 554.611 v -6.86402 h -1.37867 v -0.60133 l 1.37867,-0.44001 v -0.45466 q 0,-1.52534 0.67467,-2.18534 0.67467,-0.67467 1.87734,-0.67467 0.46933,0 0.85066,0.088 0.396,0.0733 0.67467,0.176 l -0.33733,1.012 q -0.23467,-0.0733 -0.54267,-0.14666 -0.308,-0.0733 -0.63067,-0.0733 -0.64533,0 -0.968,0.44 -0.308,0.42534 -0.308,1.34934 v 0.51333 h 1.98 z m 7.99335,-0.99734 v 7.86136 h -1.056 l -0.19067,-1.04134 h -0.0587 q -0.38134,0.616 -1.05601,0.90934 -0.67467,0.27866 -1.43733,0.27866 -1.42267,0 -2.14134,-0.67466 -0.71867,-0.68934 -0.71867,-2.18534 v -5.14802 h 1.30534 v 5.06002 q 0,1.87733 1.74533,1.87733 1.30534,0 1.80401,-0.73333 0.51333,-0.73334 0.51333,-2.11201 v -4.09201 z m 6.27735,-0.14666 q 1.40801,0 2.12668,0.68933 0.71866,0.67467 0.71866,2.20001 v 5.11868 h -1.276 v -5.03068 q 0,-1.89201 -1.76,-1.89201 -1.30534,0 -1.80401,0.73334 -0.49866,0.73333 -0.49866,2.112 v 4.07735 h -1.29067 v -7.86136 h 1.04133 l 0.19067,1.07067 h 0.0733 q 0.38134,-0.616 1.056,-0.90933 0.67467,-0.308 1.42267,-0.308 z m 6.42402,5.06001 h -0.83601 l -0.36666,-7.52402 h 1.56933 z m -1.33467,2.156 q 0,-0.54266 0.264,-0.76266 0.264,-0.22 0.64533,-0.22 0.36667,0 0.63067,0.22 0.27867,0.22 0.27867,0.76266 0,0.52801 -0.27867,0.76267 -0.264,0.23467 -0.63067,0.23467 -0.38133,0 -0.64533,-0.23467 -0.264,-0.23466 -0.264,-0.76267 z"
           id="path12" />
      </g>
    </g>
    <circle
       style="fill:#009688;fill-opacity:1;stroke:none;stroke-width:2.64567;stroke-linecap:round;stroke-linejoin:round;stroke-miterlimit:4;stroke-dasharray:none;stroke-opacity:1;paint-order:stroke fill markers"
       id="path56398-1-7"
       cx="412.38782"
       cy="212.21765"
       r="17.958248" />
    <rect
       style="opacity:0.549459;fill:#141a21;fill-opacity:1;stroke:none;stroke-width:2.64567;stroke-linecap:round;stroke-linejoin:round;stroke-miterlimit:4;stroke-dasharray:none;stroke-opacity:1;paint-order:stroke fill markers"
       id="rect57316"
       width="166.86494"
       height="22.81864"
       x="408.85364"
       y="396.34387"
       ry="6.50418" />
    <path
       style="fill:none;fill-rule:evenodd;stroke:#505050;stroke-width:2;stroke-linecap:round;stroke-linejoin:miter;stroke-miterlimit:4;stroke-dasharray:none;stroke-opacity:1"
       d="M 417.31814,414.32959 H 567.25408"
       id="path61489" />
    <g
       style="fill:#000000"
       id="g61791"
       transform="matrix(0.72201079,0,0,0.72201079,584.13849,399.19014)">
      <path
         d="M 0,0 H 24 V 24 H 0 Z"
         fill="none"
         id="path61779" />
      <path
         d="M 0.01,21 21,12 0.01,3 0,10 15,12 0,14 Z"
         id="path61781"
         style="opacity:0.388761;fill:#ffffff;fill-opacity:1" />
    </g>
    <g
       id="g96177"
       transform="translate(-101.22863,-60.25772)">
      <circle
         style="opacity:1;fill:#795548;fill-opacity:1;stroke:none;stroke-width:2.42533;stroke-linecap:butt;stroke-linejoin:round;stroke-miterlimit:4;stroke-dasharray:none;stroke-opacity:1;paint-order:stroke fill markers"
         id="path95391"
         cx="363.8566"
         cy="261.34271"
         r="11.445526" />
      <path
         style="fill:none;fill-rule:evenodd;stroke:#ffffff;stroke-width:3;stroke-linecap:round;stroke-linejoin:miter;stroke-miterlimit:4;stroke-dasharray:none;stroke-opacity:0.28902"
         d="m 384.31485,256.70372 h 86.56474"
         id="path95626"
         sodipodi:nodetypes="cc" />
      <path
         style="fill:none;fill-rule:evenodd;stroke:#ffffff;stroke-width:3;stroke-linecap:round;stroke-linejoin:miter;stroke-miterlimit:4;stroke-dasharray:none;stroke-opacity:0.28902"
         d="m 384.31485,266.21797 h 64.0488"
         id="path95628"
         sodipodi:nodetypes="cc" />
    </g>
    <circle
       style="fill:#00bcd4;fill-opacity:1;stroke:none;stroke-width:2.42533;stroke-linecap:butt;stroke-linejoin:round;stroke-miterlimit:4;stroke-dasharray:none;stroke-opacity:1;paint-order:stroke fill markers"
       id="path95391-3"
       cx="262.62796"
       cy="242.76898"
       r="11.445526" />
    <path
       style="fill:none;fill-rule:evenodd;stroke:#ffffff;stroke-width:3;stroke-linecap:round;stroke-linejoin:miter;stroke-miterlimit:4;stroke-dasharray:none;stroke-opacity:0.28902"
       d="m 282.89511,238.13 h 75.53572"
       id="path95626-1"
       sodipodi:nodetypes="cc" />
    <path
       style="fill:none;fill-rule:evenodd;stroke:#ffffff;stroke-width:3;stroke-linecap:round;stroke-linejoin:miter;stroke-miterlimit:4;stroke-dasharray:none;stroke-opacity:0.28902"
       d="m 283.49598,247.64425 h 64.0488"
       id="path95628-9"
       sodipodi:nodetypes="cc" />
    <circle
       style="fill:#ffc107;fill-opacity:1;stroke:none;stroke-width:2.42533;stroke-linecap:butt;stroke-linejoin:round;stroke-miterlimit:4;stroke-dasharray:none;stroke-opacity:1;paint-order:stroke fill markers"
       id="path95391-7"
       cx="262.62796"
       cy="284.453"
       r="11.445526" />
    <path
       style="fill:#ffc107;fill-opacity:1;fill-rule:evenodd;stroke:#ffffff;stroke-width:3;stroke-linecap:round;stroke-linejoin:miter;stroke-miterlimit:4;stroke-dasharray:none;stroke-opacity:0.28902"
       d="m 283.49598,279.81401 h 86.56474"
       id="path95626-8"
       sodipodi:nodetypes="cc" />
    <path
       style="fill:#ffc107;fill-opacity:1;fill-rule:evenodd;stroke:#ffffff;stroke-width:3;stroke-linecap:round;stroke-linejoin:miter;stroke-miterlimit:4;stroke-dasharray:none;stroke-opacity:0.28902"
       d="m 284.09685,289.32826 h 89.7055"
       id="path95628-4"
       sodipodi:nodetypes="cc" />
    <circle
       style="fill:#e91e63;fill-opacity:1;stroke:none;stroke-width:2.42533;stroke-linecap:butt;stroke-linejoin:round;stroke-miterlimit:4;stroke-dasharray:none;stroke-opacity:1;paint-order:stroke fill markers"
       id="path95391-0"
       cx="262.62796"
       cy="326.13702"
       r="11.445526" />
    <path
       style="fill:none;fill-rule:evenodd;stroke:#ffffff;stroke-width:3;stroke-linecap:round;stroke-linejoin:miter;stroke-miterlimit:4;stroke-dasharray:none;stroke-opacity:0.28902"
       d="m 283.49598,321.49802 h 46.32081"
       id="path95626-3"
       sodipodi:nodetypes="cc" />
    <path
       style="fill:none;fill-rule:evenodd;stroke:#ffffff;stroke-width:3;stroke-linecap:round;stroke-linejoin:miter;stroke-miterlimit:4;stroke-dasharray:none;stroke-opacity:0.28902"
       d="m 283.49598,331.01227 h 72.15379"
       id="path95628-6"
       sodipodi:nodetypes="cc" />
    <circle
       style="fill:#689f38;fill-opacity:1;stroke:none;stroke-width:2.42533;stroke-linecap:butt;stroke-linejoin:round;stroke-miterlimit:4;stroke-dasharray:none;stroke-opacity:1;paint-order:stroke fill markers"
       id="path95391-7-0"
       cx="262.0271"
       cy="365.94946"
       r="11.445526" />
    <path
       style="opacity:0.187875;fill:#666666;fill-opacity:1;fill-rule:evenodd;stroke:none;stroke-width:1px;stroke-linecap:butt;stroke-linejoin:miter;stroke-opacity:1;filter:url(#filter1384)"
       d="m 239.78099,369.31386 c 27.46592,-62.63479 43.30522,21.53124 43.30522,21.53124 29.96266,-25.42669 102.47101,-28.54824 134.23193,23.48449 31.91924,-2.23209 -79.4176,-57.35327 -88.52051,-9.54134 l -11.06282,37.2574 z"
       id="path97806-6"
       sodipodi:nodetypes="cccccc" />
    <path
       style="fill:#ffc107;fill-opacity:1;fill-rule:evenodd;stroke:#ffffff;stroke-width:3;stroke-linecap:round;stroke-linejoin:miter;stroke-miterlimit:4;stroke-dasharray:none;stroke-opacity:0.28902"
       d="m 282.89511,361.31047 h 86.56474"
       id="path95626-8-6"
       sodipodi:nodetypes="cc" />
    <path
       style="fill:#ffc107;fill-opacity:1;fill-rule:evenodd;stroke:#ffffff;stroke-width:3;stroke-linecap:round;stroke-linejoin:miter;stroke-miterlimit:4;stroke-dasharray:none;stroke-opacity:0.28902"
       d="m 282.89511,370.82472 h 89.7055"
       id="path95628-4-3"
       sodipodi:nodetypes="cc" />
    <path
       style="fill:url(#radialGradient98603);fill-opacity:1;fill-rule:evenodd;stroke:none;stroke-width:1px;stroke-linecap:butt;stroke-linejoin:miter;stroke-opacity:1"
       d="m 161.42944,373.12597 c 27.46592,-62.63479 121.65677,17.71913 121.65677,17.71913 29.96266,-25.42669 102.47101,-28.54824 134.23193,23.48449 31.91924,-2.23209 57.55823,31.26986 48.45532,79.08179 l -279.68533,32.60293 z"
       id="path97806"
       sodipodi:nodetypes="cccccc" />
    <g
       id="g98912"
       transform="translate(276.5922,-131.8072)">
      <g
         style="fill:#b3b3b3;fill-opacity:1"
         id="g73141"
         transform="matrix(2.5687476,0,0,2.5687476,304.91491,284.90103)">
        <path
           d="m 12,22 c 1.1,0 2,-0.9 2,-2 h -4 c 0,1.1 0.89,2 2,2 z m 6,-6 V 11 C 18,7.93 16.36,5.36 13.5,4.68 V 4 C 13.5,3.17 12.83,2.5 12,2.5 11.17,2.5 10.5,3.17 10.5,4 V 4.68 C 7.63,5.36 6,7.92 6,11 v 5 l -2,2 v 1 h 16 v -1 z"
           id="path73132"
           style="fill:#b3b3b3;fill-opacity:1" />
      </g>
      <rect
         style="opacity:1;fill:#ff5722;fill-opacity:1;stroke:none;stroke-width:1.57232;stroke-linecap:round;stroke-linejoin:round;stroke-miterlimit:4;stroke-dasharray:none;stroke-opacity:1;paint-order:stroke fill markers"
         id="rect73561"
         width="20.829515"
         height="19.859383"
         x="341.33636"
         y="321.55728"
         ry="3.9799769" />
      <text
         xml:space="preserve"
         style="font-style:normal;font-variant:normal;font-weight:normal;font-stretch:normal;font-size:14.6667px;line-height:27.5px;font-family:Roboto;-inkscape-font-specification:Roboto;letter-spacing:0px;word-spacing:0px;fill:#ffffff;fill-opacity:1;stroke:none;stroke-width:1px;stroke-linecap:butt;stroke-linejoin:miter;stroke-opacity:1"
         x="347.51978"
         y="336.79633"
         id="text76157"><tspan
           sodipodi:role="line"
           id="tspan76155"
           x="347.51978"
           y="336.79633"
           style="font-style:normal;font-variant:normal;font-weight:bold;font-stretch:normal;font-size:14.6667px;line-height:27.5px;font-family:Roboto;-inkscape-font-specification:'Roboto Bold'">2</tspan></text>
    </g>
    <g
       id="g71746"
       transform="translate(-185.58658,-58.0603)">
      <rect
         style="opacity:1;fill:#ff5722;fill-opacity:1;stroke-width:1.55312;stroke-linejoin:round;paint-order:stroke fill markers"
         id="rect422"
         width="48.306873"
         height="48.306873"
         x="-483.51984"
         y="443.02493"
         ry="24.153437"
         transform="rotate(-90)" />
      <path
         d="m 476.53988,460.70378 h -8.02416 v 8.02416 h -2.67473 v -8.02416 h -8.02416 v -2.67473 h 8.02416 v -8.02416 h 2.67473 v 8.02416 h 8.02416 z"
         id="path48870"
         style="fill:#ffffff;stroke-width:1.33736" />
    </g>
  </g>
  <g
     inkscape:groupmode="layer"
     inkscape:label="Image"
     id="g880"
     transform="translate(-129.10882,-147.40948)">
    <text
       xml:space="preserve"
       style="font-style:normal;font-weight:normal;font-size:13.3333px;line-height:25px;font-family:sans-serif;letter-spacing:0px;word-spacing:0px;fill:#000000;fill-opacity:1;stroke:none;stroke-width:1px;stroke-linecap:butt;stroke-linejoin:miter;stroke-opacity:1"
       x="81.708305"
       y="36.840881"
       id="text110341"><tspan
         sodipodi:role="line"
         id="tspan110339"
         x="81.708305"
         y="36.840881" /></text>
  </g>
</svg>
