<?xml version="1.0" encoding="UTF-8" standalone="no"?>
<!-- Created with Inkscape (http://www.inkscape.org/) -->

<svg
   version="1.1"
   id="svg874"
   width="566.00824"
   height="600.30835"
   viewBox="0 0 566.00824 600.30837"
   sodipodi:docname="sitting.svg"
   inkscape:version="1.1.2 (0a00cf5339, 2022-02-04)"
   xmlns:inkscape="http://www.inkscape.org/namespaces/inkscape"
   xmlns:sodipodi="http://sodipodi.sourceforge.net/DTD/sodipodi-0.dtd"
   xmlns:xlink="http://www.w3.org/1999/xlink"
   xmlns="http://www.w3.org/2000/svg"
   xmlns:svg="http://www.w3.org/2000/svg">
  <defs
     id="defs878">
    <linearGradient
       inkscape:collect="always"
       id="linearGradient63673">
      <stop
         style="stop-color:#485bc6;stop-opacity:1"
         offset="0"
         id="stop63669" />
      <stop
         style="stop-color:#3748a3;stop-opacity:1"
         offset="1"
         id="stop63671" />
    </linearGradient>
    <linearGradient
       inkscape:collect="always"
       id="linearGradient8630">
      <stop
         style="stop-color:#f5d4c9;stop-opacity:1"
         offset="0"
         id="stop8628" />
      <stop
         style="stop-color:#dab4a4;stop-opacity:1"
         offset="1"
         id="stop8626" />
    </linearGradient>
    <linearGradient
       inkscape:collect="always"
       id="linearGradient107515">
      <stop
         style="stop-color:#e91e63;stop-opacity:1;"
         offset="0"
         id="stop107511" />
      <stop
         style="stop-color:#d52d69;stop-opacity:1"
         offset="1"
         id="stop107513" />
    </linearGradient>
    <linearGradient
       inkscape:collect="always"
       id="linearGradient106105">
      <stop
         style="stop-color:#303d83;stop-opacity:1"
         offset="0"
         id="stop106101" />
      <stop
         style="stop-color:#3f51b5;stop-opacity:1"
         offset="1"
         id="stop106103" />
    </linearGradient>
    <linearGradient
       inkscape:collect="always"
       id="linearGradient105873">
      <stop
         style="stop-color:#f44336;stop-opacity:1"
         offset="0"
         id="stop105869" />
      <stop
         style="stop-color:#000000;stop-opacity:1"
         offset="1"
         id="stop105871" />
    </linearGradient>
    <linearGradient
       inkscape:collect="always"
       id="linearGradient98601">
      <stop
         style="stop-color:#ffffff;stop-opacity:1;"
         offset="0"
         id="stop98597" />
      <stop
         style="stop-color:#ffffff;stop-opacity:0.90210038"
         offset="1"
         id="stop98599" />
    </linearGradient>
    <linearGradient
       inkscape:collect="always"
       id="linearGradient91834">
      <stop
         style="stop-color:#ffffff;stop-opacity:1;"
         offset="0"
         id="stop91830" />
      <stop
         style="stop-color:#d9d9d9;stop-opacity:0.98039216"
         offset="1"
         id="stop91832" />
    </linearGradient>
    <linearGradient
       inkscape:collect="always"
       id="linearGradient87518">
      <stop
         style="stop-color:#dab4a4;stop-opacity:1"
         offset="0"
         id="stop87514" />
      <stop
         style="stop-color:#f5d4c9;stop-opacity:1"
         offset="1"
         id="stop87516" />
    </linearGradient>
    <linearGradient
       inkscape:collect="always"
       id="linearGradient85606">
      <stop
         style="stop-color:#182028;stop-opacity:1"
         offset="0"
         id="stop85602" />
      <stop
         style="stop-color:#141a21;stop-opacity:1"
         offset="1"
         id="stop85604" />
    </linearGradient>
    <linearGradient
       inkscape:collect="always"
       xlink:href="#linearGradient105873"
       id="linearGradient80359"
       x1="635.05743"
       y1="320.98828"
       x2="637.99408"
       y2="307.64453"
       gradientUnits="userSpaceOnUse"
       gradientTransform="matrix(1.6196102,0,0,1.6196102,-677.34462,63.949006)" />
    <linearGradient
       inkscape:collect="always"
       xlink:href="#linearGradient105873"
       id="linearGradient80783"
       gradientUnits="userSpaceOnUse"
       x1="664.24683"
       y1="304.24991"
       x2="672.21967"
       y2="289.40323"
       gradientTransform="matrix(1.6196102,0,0,1.6196102,-677.34462,63.949006)" />
    <radialGradient
       inkscape:collect="always"
       xlink:href="#linearGradient85606"
       id="radialGradient85608"
       cx="642.70532"
       cy="81.426979"
       fx="642.70532"
       fy="81.426979"
       r="35.808872"
       gradientTransform="matrix(1.6196102,0,0,1.3521649,-687.34462,85.726276)"
       gradientUnits="userSpaceOnUse" />
    <radialGradient
       inkscape:collect="always"
       xlink:href="#linearGradient87518"
       id="radialGradient86334"
       gradientUnits="userSpaceOnUse"
       gradientTransform="matrix(4.1346417,2.802717,-0.47360675,0.69867708,-2237.2626,-1624.6123)"
       cx="639.62164"
       cy="113.83991"
       fx="639.62164"
       fy="113.83991"
       r="9.5546846" />
    <radialGradient
       inkscape:collect="always"
       xlink:href="#linearGradient87518"
       id="radialGradient87368"
       cx="581.22015"
       cy="236.27939"
       fx="581.22015"
       fy="236.27939"
       r="15.454248"
       gradientTransform="matrix(2.1923414,-1.4027975,1.3611141,2.127197,-1326.5772,761.51709)"
       gradientUnits="userSpaceOnUse" />
    <radialGradient
       inkscape:collect="always"
       xlink:href="#linearGradient106105"
       id="radialGradient87765"
       cx="609.92133"
       cy="291.60544"
       fx="609.92133"
       fy="291.60544"
       r="32.938995"
       gradientTransform="matrix(1.6073763,0.20845699,-0.31686711,2.4433084,-585.46843,-340.70586)"
       gradientUnits="userSpaceOnUse" />
    <radialGradient
       inkscape:collect="always"
       xlink:href="#linearGradient106105"
       id="radialGradient88781"
       cx="655.50305"
       cy="245.18256"
       fx="655.50305"
       fy="245.18256"
       r="22.284748"
       gradientTransform="matrix(1.9676158,-0.0484421,0.04709678,1.9129716,-917.0107,11.187996)"
       gradientUnits="userSpaceOnUse" />
    <radialGradient
       inkscape:collect="always"
       xlink:href="#linearGradient91834"
       id="radialGradient91836"
       cx="659.77924"
       cy="327.91214"
       fx="659.77924"
       fy="327.91214"
       r="12.731109"
       gradientTransform="matrix(4.1182012,-0.83364737,0.54334351,2.6841061,-2507.7123,268.08972)"
       gradientUnits="userSpaceOnUse" />
    <radialGradient
       inkscape:collect="always"
       xlink:href="#linearGradient91834"
       id="radialGradient93117"
       cx="635.25885"
       cy="355.14438"
       fx="635.25885"
       fy="355.14438"
       r="8.2907877"
       gradientTransform="matrix(2.3531186,-0.08276176,0.0744347,2.1163599,-1169.7473,-61.954494)"
       gradientUnits="userSpaceOnUse" />
    <radialGradient
       inkscape:collect="always"
       xlink:href="#linearGradient98601"
       id="radialGradient98603"
       cx="415.7594"
       cy="498.32187"
       fx="415.7594"
       fy="498.32187"
       r="153.1013"
       gradientTransform="matrix(1.2259953,0.15705087,-0.09716624,0.7585144,-146.76824,266.34787)"
       gradientUnits="userSpaceOnUse" />
    <radialGradient
       inkscape:collect="always"
       xlink:href="#linearGradient8630"
       id="radialGradient98933"
       gradientUnits="userSpaceOnUse"
       gradientTransform="matrix(2.6786097,0.99528692,-0.80251187,2.1597954,-1300.7838,-629.76275)"
       cx="650.83612"
       cy="93.991951"
       fx="650.83612"
       fy="93.991951"
       r="21.33672" />
    <radialGradient
       inkscape:collect="always"
       xlink:href="#linearGradient63673"
       id="radialGradient106197"
       cx="631.17859"
       cy="349.39917"
       fx="631.17859"
       fy="349.39917"
       r="16.090235"
       gradientTransform="matrix(0.97164982,0.05176989,-0.05700778,1.0699577,-235.19781,153.97689)"
       gradientUnits="userSpaceOnUse" />
    <radialGradient
       inkscape:collect="always"
       xlink:href="#linearGradient63673"
       id="radialGradient106443"
       cx="676.72668"
       cy="329.56561"
       fx="676.72668"
       fy="329.56561"
       r="16.26148"
       gradientTransform="matrix(1,0,0,0.64187761,-273.01028,329.12095)"
       gradientUnits="userSpaceOnUse" />
    <radialGradient
       inkscape:collect="always"
       xlink:href="#linearGradient107515"
       id="radialGradient107517"
       cx="627.49799"
       cy="131.95909"
       fx="627.49799"
       fy="131.95909"
       r="79.562881"
       gradientTransform="matrix(0.99390378,0.11025095,-0.21409979,1.930093,-244.27242,29.150936)"
       gradientUnits="userSpaceOnUse" />
    <filter
       inkscape:collect="always"
       style="color-interpolation-filters:sRGB"
       id="filter1194"
       x="-0.051368152"
       y="-0.075463171"
       width="1.1027363"
       height="1.1509263">
      <feGaussianBlur
         inkscape:collect="always"
         stdDeviation="7.8522603"
         id="feGaussianBlur1196" />
    </filter>
    <filter
       inkscape:collect="always"
       style="color-interpolation-filters:sRGB"
       id="filter1265"
       x="-0.086588964"
       y="-0.2822091"
       width="1.1731779"
       height="1.5644182">
      <feGaussianBlur
         inkscape:collect="always"
         stdDeviation="6.9459767"
         id="feGaussianBlur1267" />
    </filter>
    <filter
       inkscape:collect="always"
       style="color-interpolation-filters:sRGB"
       id="filter1291"
       x="-0.19703157"
       y="-0.23308712"
       width="1.3940631"
       height="1.4661742">
      <feGaussianBlur
         inkscape:collect="always"
         stdDeviation="2.1989962"
         id="feGaussianBlur1293" />
    </filter>
    <filter
       inkscape:collect="always"
       style="color-interpolation-filters:sRGB"
       id="filter1384"
       x="-0.60387092"
       y="-1.1539517"
       width="2.2077418"
       height="3.3079034">
      <feGaussianBlur
         inkscape:collect="always"
         stdDeviation="46.113402"
         id="feGaussianBlur1386" />
    </filter>
  </defs>
  <sodipodi:namedview
     id="namedview876"
     pagecolor="#ffffff"
     bordercolor="#eeeeee"
     borderopacity="1"
     inkscape:pageshadow="0"
     inkscape:pageopacity="1"
     inkscape:pagecheckerboard="false"
     showgrid="false"
     inkscape:zoom="2.32"
     inkscape:cx="374.78448"
     inkscape:cy="451.2931"
     inkscape:window-width="1920"
     inkscape:window-height="1025"
     inkscape:window-x="0"
     inkscape:window-y="0"
     inkscape:window-maximized="1"
     inkscape:current-layer="text38925-7"
     showguides="true"
     inkscape:guide-bbox="true"
     fit-margin-top="0"
     fit-margin-left="0"
     fit-margin-right="0"
     fit-margin-bottom="0">
    <sodipodi:guide
       position="335.77586,246.42905"
       orientation="1,0"
       id="guide9303" />
  </sodipodi:namedview>
  <g
     inkscape:groupmode="layer"
     id="layer1"
     inkscape:label="Dessin"
     style="display:none"
     sodipodi:insensitive="true"
     transform="translate(-129.10882,-147.40948)">
    <image
       width="814.08002"
       height="1122.5601"
       preserveAspectRatio="none"
       xlink:href="file:///home/edhelas/Documents/Movim/drawings/sitting.png"
       id="image882"
       x="-138.78625"
       y="-109.12682" />
  </g>
  <g
     inkscape:groupmode="layer"
     id="layer2"
     inkscape:label="Box"
     transform="translate(-129.10882,-147.40948)">
    <rect
       style="fill:#192028;fill-opacity:1;stroke:none;stroke-width:3.36153;stroke-linecap:square;stroke-linejoin:round;stroke-miterlimit:4;stroke-dasharray:none;stroke-opacity:1;paint-order:stroke fill markers"
       id="rect17663"
       width="366.86981"
       height="249.73009"
       x="241.03683"
       y="448.88861"
       ry="12.239537" />
    <rect
       style="fill:#192028;fill-opacity:0.156664;stroke:none;stroke-width:3.36153;stroke-linecap:square;stroke-linejoin:round;stroke-miterlimit:4;stroke-dasharray:none;stroke-opacity:1;paint-order:stroke fill markers;filter:url(#filter1194)"
       id="rect17663-3"
       width="366.86981"
       height="249.73009"
       x="241.03683"
       y="448.88861"
       ry="12.239537" />
    <rect
       style="opacity:1;fill:#141a21;fill-opacity:1;stroke:none;stroke-width:2.64567;stroke-linecap:round;stroke-linejoin:round;stroke-miterlimit:4;stroke-dasharray:none;stroke-opacity:1;paint-order:stroke fill markers"
       id="rect30625"
       width="143.27802"
       height="248.25755"
       x="241.03683"
       y="448.88861"
       ry="6.5041752" />
    <rect
       style="opacity:1;fill:#141a21;fill-opacity:1;stroke:none;stroke-width:2.64567;stroke-linecap:round;stroke-linejoin:round;stroke-miterlimit:4;stroke-dasharray:none;stroke-opacity:1;paint-order:stroke fill markers"
       id="rect32545"
       width="192.52274"
       height="59.070896"
       x="446.96948"
       y="600.47607"
       ry="6.50418" />
    <rect
       style="opacity:0.346608;mix-blend-mode:normal;fill:#141a21;fill-opacity:1;stroke:none;stroke-width:2.64567;stroke-linecap:round;stroke-linejoin:round;stroke-miterlimit:4;stroke-dasharray:none;stroke-opacity:1;paint-order:stroke fill markers;filter:url(#filter1265)"
       id="rect32545-6"
       width="192.52274"
       height="59.070896"
       x="446.96948"
       y="600.47607"
       ry="6.50418" />
    <path
       style="fill:#141a21;fill-opacity:1;fill-rule:evenodd;stroke:none;stroke-width:1px;stroke-linecap:butt;stroke-linejoin:miter;stroke-opacity:1"
       d="m 628.44767,600.38813 h 26.78551 l -25.25194,22.64214 z"
       id="path34642" />
    <path
       style="opacity:0.228111;mix-blend-mode:normal;fill:#141a21;fill-opacity:0.369014;fill-rule:evenodd;stroke:none;stroke-width:1px;stroke-linecap:butt;stroke-linejoin:miter;stroke-opacity:1;filter:url(#filter1291)"
       d="m 628.44767,600.38813 h 26.78551 l -25.25194,22.64214 z"
       id="path34642-7" />
    <g
       aria-label="Hello everyone :)
How are you? "
       id="text38925"
       style="font-size:14.6667px;line-height:17.3228px;letter-spacing:0px;word-spacing:0px;fill:#ffffff;stroke-width:1px">
      <path
         d="m 465.29673,623.80133 v -4.81967 h -5.25652 v 4.81967 h -1.38217 v -10.42711 h 1.38217 v 4.48309 h 5.25652 v -4.48309 h 1.375 v 10.42711 z"
         style="font-family:Roboto;-inkscape-font-specification:Roboto"
         id="path9711" />
      <path
         d="m 475.05066,622.44781 q -0.37956,0.57292 -1.07422,1.03842 -0.69467,0.45833 -1.8405,0.45833 -1.61849,0 -2.59246,-1.05274 -0.96679,-1.05273 -0.96679,-2.69271 v -0.30078 q 0,-1.26758 0.47981,-2.15561 0.48698,-0.89518 1.26042,-1.36068 0.77344,-0.47265 1.64714,-0.47265 1.66147,0 2.42058,1.08854 0.76628,1.08138 0.76628,2.70704 v 0.5944 h -5.2422 q 0.0286,1.06706 0.63021,1.81901 0.60872,0.7448 1.66862,0.7448 0.70183,0 1.18881,-0.28646 0.48698,-0.28646 0.85221,-0.76628 z m -3.0866,-5.44988 q -0.78776,0 -1.33203,0.57292 -0.54427,0.57292 -0.68034,1.64714 h 3.87436 v -0.10026 q -0.0501,-0.77344 -0.45118,-1.44662 -0.39388,-0.67318 -1.41081,-0.67318 z"
         style="font-family:Roboto;-inkscape-font-specification:Roboto"
         id="path9713" />
      <path
         d="m 478.13725,612.80131 v 11.00002 h -1.33203 v -11.00002 z"
         style="font-family:Roboto;-inkscape-font-specification:Roboto"
         id="path9715" />
      <path
         d="m 481.70367,612.80131 v 11.00002 h -1.33204 v -11.00002 z"
         style="font-family:Roboto;-inkscape-font-specification:Roboto"
         id="path9717" />
      <path
         d="m 483.47971,619.8482 q 0,-1.68295 0.94532,-2.8073 0.94531,-1.13151 2.57097,-1.13151 1.62565,0 2.57097,1.11002 0.94531,1.10287 0.9668,2.75717 v 0.23633 q 0,1.68295 -0.95248,2.8073 -0.94531,1.12435 -2.57097,1.12435 -1.63282,0 -2.58529,-1.12435 -0.94532,-1.12435 -0.94532,-2.8073 z m 1.32488,0.16471 q 0,1.153 0.54427,1.99805 0.55143,0.84506 1.66146,0.84506 1.08138,0 1.63282,-0.83074 0.55143,-0.83789 0.55859,-1.99089 v -0.18619 q 0,-1.13868 -0.55143,-1.99089 -0.55144,-0.85938 -1.6543,-0.85938 -1.09571,0 -1.64714,0.85938 -0.54427,0.85221 -0.54427,1.99089 z"
         style="font-family:Roboto;-inkscape-font-specification:Roboto"
         id="path9719" />
      <path
         d="m 501.96348,622.44781 q -0.37956,0.57292 -1.07422,1.03842 -0.69466,0.45833 -1.8405,0.45833 -1.61849,0 -2.59245,-1.05274 -0.9668,-1.05273 -0.9668,-2.69271 v -0.30078 q 0,-1.26758 0.47982,-2.15561 0.48698,-0.89518 1.26042,-1.36068 0.77343,-0.47265 1.64713,-0.47265 1.66147,0 2.42058,1.08854 0.76628,1.08138 0.76628,2.70704 v 0.5944 h -5.2422 q 0.0286,1.06706 0.63021,1.81901 0.60873,0.7448 1.66863,0.7448 0.70182,0 1.1888,-0.28646 0.48698,-0.28646 0.85222,-0.76628 z m -3.0866,-5.44988 q -0.78776,0 -1.33203,0.57292 -0.54427,0.57292 -0.68034,1.64714 h 3.87436 v -0.10026 q -0.0501,-0.77344 -0.45117,-1.44662 -0.39389,-0.67318 -1.41082,-0.67318 z"
         style="font-family:Roboto;-inkscape-font-specification:Roboto"
         id="path9721" />
      <path
         d="m 509.34696,616.05261 -2.78581,7.74872 h -1.00977 l -2.8073,-7.74872 h 1.36068 l 1.96941,5.93687 1.91927,-5.93687 z"
         style="font-family:Roboto;-inkscape-font-specification:Roboto"
         id="path9723" />
      <path
         d="m 516.65883,622.44781 q -0.37956,0.57292 -1.07422,1.03842 -0.69467,0.45833 -1.8405,0.45833 -1.6185,0 -2.59246,-1.05274 -0.9668,-1.05273 -0.9668,-2.69271 v -0.30078 q 0,-1.26758 0.47982,-2.15561 0.48698,-0.89518 1.26042,-1.36068 0.77344,-0.47265 1.64714,-0.47265 1.66146,0 2.42058,1.08854 0.76628,1.08138 0.76628,2.70704 v 0.5944 h -5.2422 q 0.0286,1.06706 0.63021,1.81901 0.60872,0.7448 1.66862,0.7448 0.70183,0 1.18881,-0.28646 0.48698,-0.28646 0.85221,-0.76628 z m -3.0866,-5.44988 q -0.78776,0 -1.33203,0.57292 -0.54427,0.57292 -0.68034,1.64714 h 3.87436 v -0.10026 q -0.0501,-0.77344 -0.45118,-1.44662 -0.39388,-0.67318 -1.41081,-0.67318 z"
         style="font-family:Roboto;-inkscape-font-specification:Roboto"
         id="path9725" />
      <path
         d="m 521.39972,617.18413 q -1.29623,0 -1.76888,1.11719 v 5.50001 h -1.32488 v -7.74872 h 1.28907 l 0.0287,0.88803 q 0.63737,-1.03125 1.84049,-1.03125 0.3724,0 0.58725,0.10026 l -0.007,1.23177 q -0.29362,-0.0573 -0.64453,-0.0573 z"
         style="font-family:Roboto;-inkscape-font-specification:Roboto"
         id="path9727" />
      <path
         d="m 526.04752,624.9973 q -0.6875,1.81901 -2.07683,1.92643 l -0.22201,0.007 q -0.42252,0 -0.74479,-0.11459 l -0.007,-1.07422 0.35807,0.0287 q 0.67318,0 1.05274,-0.2793 0.37956,-0.27214 0.62305,-0.98828 l 0.28646,-0.78777 -2.76433,-7.66278 h 1.44661 l 1.94076,5.8008 1.79753,-5.8008 h 1.41798 z"
         style="font-family:Roboto;-inkscape-font-specification:Roboto"
         id="path9729" />
      <path
         d="m 529.88607,619.8482 q 0,-1.68295 0.94531,-2.8073 0.94532,-1.13151 2.57097,-1.13151 1.62566,0 2.57097,1.11002 0.94531,1.10287 0.9668,2.75717 v 0.23633 q 0,1.68295 -0.95248,2.8073 -0.94531,1.12435 -2.57097,1.12435 -1.63281,0 -2.58529,-1.12435 -0.94531,-1.12435 -0.94531,-2.8073 z m 1.32487,0.16471 q 0,1.153 0.54427,1.99805 0.55144,0.84506 1.66146,0.84506 1.08139,0 1.63282,-0.83074 0.55143,-0.83789 0.5586,-1.99089 v -0.18619 q 0,-1.13868 -0.55144,-1.99089 -0.55143,-0.85938 -1.6543,-0.85938 -1.0957,0 -1.64714,0.85938 -0.54427,0.85221 -0.54427,1.99089 z"
         style="font-family:Roboto;-inkscape-font-specification:Roboto"
         id="path9731" />
      <path
         d="m 541.81708,617.02658 q -0.63737,0 -1.12435,0.34375 -0.48698,0.34375 -0.76628,0.89518 v 5.53582 h -1.32487 v -7.74872 h 1.25326 l 0.043,0.9668 q 0.88086,-1.11002 2.31315,-1.11002 1.13868,0 1.8047,0.63737 0.67317,0.63737 0.68034,2.14128 v 5.11329 h -1.33204 v -5.09181 q 0,-0.90951 -0.40104,-1.29622 -0.39388,-0.38672 -1.14584,-0.38672 z"
         style="font-family:Roboto;-inkscape-font-specification:Roboto"
         id="path9733" />
      <path
         d="m 552.83143,622.44781 q -0.37955,0.57292 -1.07422,1.03842 -0.69466,0.45833 -1.8405,0.45833 -1.61849,0 -2.59245,-1.05274 -0.9668,-1.05273 -0.9668,-2.69271 v -0.30078 q 0,-1.26758 0.47982,-2.15561 0.48698,-0.89518 1.26042,-1.36068 0.77344,-0.47265 1.64714,-0.47265 1.66146,0 2.42058,1.08854 0.76628,1.08138 0.76628,2.70704 v 0.5944 h -5.2422 q 0.0286,1.06706 0.63021,1.81901 0.60872,0.7448 1.66862,0.7448 0.70182,0 1.1888,-0.28646 0.48698,-0.28646 0.85222,-0.76628 z m -3.08659,-5.44988 q -0.78776,0 -1.33204,0.57292 -0.54427,0.57292 -0.68034,1.64714 h 3.87436 v -0.10026 q -0.0501,-0.77344 -0.45117,-1.44662 -0.39388,-0.67318 -1.41081,-0.67318 z"
         style="font-family:Roboto;-inkscape-font-specification:Roboto"
         id="path9735" />
      <path
         d="m 558.05931,623.09951 q 0,-0.33659 0.20768,-0.56576 0.21485,-0.23633 0.61589,-0.23633 0.40104,0 0.60873,0.23633 0.21484,0.22917 0.21484,0.56576 0,0.32942 -0.21484,0.55859 -0.20769,0.22917 -0.60873,0.22917 -0.40104,0 -0.61589,-0.22917 -0.20768,-0.22917 -0.20768,-0.55859 z m 0.007,-6.32359 q 0,-0.33659 0.20768,-0.56575 0.21485,-0.23633 0.61589,-0.23633 0.40104,0 0.60873,0.23633 0.21484,0.22916 0.21484,0.56575 0,0.32943 -0.21484,0.5586 -0.20769,0.22917 -0.60873,0.22917 -0.40104,0 -0.61589,-0.22917 -0.20768,-0.22917 -0.20768,-0.5586 z"
         style="font-family:Roboto;-inkscape-font-specification:Roboto"
         id="path9737" />
      <path
         d="m 564.71948,619.63335 q 0,2.09115 -0.5944,3.64519 -0.5944,1.55404 -1.41797,2.53516 -0.81641,0.98113 -1.48959,1.35352 l -0.27929,-0.80208 q 0.83789,-0.63737 1.64713,-2.31316 0.80925,-1.67578 0.80925,-4.50457 0,-1.81185 -0.40104,-3.15821 -0.40104,-1.35351 -0.97396,-2.24154 -0.57292,-0.88802 -1.08138,-1.30339 l 0.27929,-0.80924 q 0.67318,0.37956 1.48959,1.36068 0.82357,0.98112 1.41797,2.53516 0.5944,1.54688 0.5944,3.70248 z"
         style="font-family:Roboto;-inkscape-font-specification:Roboto"
         id="path9739" />
      <path
         d="m 465.29673,641.63387 v -4.81967 h -5.25652 v 4.81967 h -1.38217 v -10.42711 h 1.38217 v 4.48309 h 5.25652 v -4.48309 h 1.375 v 10.42711 z"
         style="font-family:Roboto;-inkscape-font-specification:Roboto"
         id="path9741" />
      <path
         d="m 468.56952,637.68074 q 0,-1.68295 0.94532,-2.8073 0.94531,-1.13151 2.57097,-1.13151 1.62565,0 2.57097,1.11002 0.94531,1.10287 0.9668,2.75717 v 0.23633 q 0,1.68295 -0.95248,2.8073 -0.94531,1.12435 -2.57097,1.12435 -1.63282,0 -2.58529,-1.12435 -0.94532,-1.12435 -0.94532,-2.8073 z m 1.32488,0.16471 q 0,1.153 0.54427,1.99805 0.55143,0.84506 1.66146,0.84506 1.08138,0 1.63282,-0.83074 0.55143,-0.83789 0.55859,-1.99089 v -0.18619 q 0,-1.13868 -0.55143,-1.99089 -0.55143,-0.85938 -1.6543,-0.85938 -1.09571,0 -1.64714,0.85938 -0.54427,0.85221 -0.54427,1.99089 z"
         style="font-family:Roboto;-inkscape-font-specification:Roboto"
         id="path9743" />
      <path
         d="m 486.95303,633.88515 -2.2487,7.74872 h -1.07422 l -1.88347,-5.86525 -1.83334,5.86525 h -1.08138 l -2.24871,-7.74872 h 1.32488 l 1.52539,5.78648 1.80469,-5.78648 h 1.06706 l 1.83334,5.90822 1.49675,-5.90822 z"
         style="font-family:Roboto;-inkscape-font-specification:Roboto"
         id="path9745" />
      <path
         d="m 496.72844,641.63387 q -0.1289,-0.2793 -0.18619,-0.81641 -0.3724,0.39388 -0.931,0.68034 -0.55859,0.2793 -1.27474,0.2793 -1.1888,0 -1.90495,-0.66602 -0.71615,-0.66601 -0.71615,-1.63281 0,-1.2461 0.94532,-1.89063 0.94531,-0.6517 2.54232,-0.6517 h 1.31055 v -0.61588 q 0,-0.68751 -0.41537,-1.09571 -0.4082,-0.41537 -1.21745,-0.41537 -0.75195,0 -1.21745,0.3724 -0.45833,0.36524 -0.45833,0.85222 h -1.32487 q 0,-0.83073 0.83789,-1.5612 0.83789,-0.73047 2.24154,-0.73047 1.26042,0 2.06967,0.64453 0.80924,0.64453 0.80924,1.94792 v 3.48048 q 0,1.07422 0.27214,1.70443 v 0.11458 z m -2.19857,-1.01693 q 0.71615,0 1.23894,-0.35807 0.52995,-0.35808 0.74479,-0.79493 v -1.59701 h -1.23177 q -2.23438,0.043 -2.23438,1.4323 0,0.55143 0.37239,0.93815 0.3724,0.37956 1.11003,0.37956 z"
         style="font-family:Roboto;-inkscape-font-specification:Roboto"
         id="path9747" />
      <path
         d="m 503.01622,635.01667 q -1.29623,0 -1.76889,1.11719 v 5.50001 h -1.32487 v -7.74872 h 1.28907 l 0.0286,0.88803 q 0.63737,-1.03125 1.8405,-1.03125 0.3724,0 0.58724,0.10026 l -0.007,1.23177 q -0.29362,-0.0573 -0.64453,-0.0573 z"
         style="font-family:Roboto;-inkscape-font-specification:Roboto"
         id="path9749" />
      <path
         d="m 510.88668,640.28035 q -0.37956,0.57292 -1.07422,1.03842 -0.69467,0.45833 -1.8405,0.45833 -1.61849,0 -2.59245,-1.05274 -0.9668,-1.05273 -0.9668,-2.69271 v -0.30078 q 0,-1.26758 0.47981,-2.15561 0.48699,-0.89518 1.26042,-1.36068 0.77344,-0.47265 1.64714,-0.47265 1.66147,0 2.42058,1.08854 0.76628,1.08138 0.76628,2.70704 v 0.5944 h -5.2422 q 0.0287,1.06706 0.63021,1.81901 0.60873,0.7448 1.66862,0.7448 0.70183,0 1.18881,-0.28646 0.48698,-0.28646 0.85221,-0.76628 z m -3.0866,-5.44988 q -0.78776,0 -1.33203,0.57292 -0.54427,0.57292 -0.68034,1.64714 h 3.87436 v -0.10026 q -0.0501,-0.77344 -0.45118,-1.44662 -0.39388,-0.67318 -1.41081,-0.67318 z"
         style="font-family:Roboto;-inkscape-font-specification:Roboto"
         id="path9751" />
      <path
         d="m 518.81443,642.82984 q -0.6875,1.81901 -2.07683,1.92643 l -0.222,0.007 q -0.42253,0 -0.7448,-0.11458 l -0.007,-1.07422 0.35808,0.0287 q 0.67318,0 1.05273,-0.2793 0.37956,-0.27214 0.62305,-0.98829 l 0.28646,-0.78776 -2.76433,-7.66278 h 1.44662 l 1.94076,5.8008 1.79753,-5.8008 h 1.41797 z"
         style="font-family:Roboto;-inkscape-font-specification:Roboto"
         id="path9753" />
      <path
         d="m 522.65298,637.68074 q 0,-1.68295 0.94532,-2.8073 0.94531,-1.13151 2.57097,-1.13151 1.62565,0 2.57096,1.11002 0.94532,1.10287 0.9668,2.75717 v 0.23633 q 0,1.68295 -0.95247,2.8073 -0.94532,1.12435 -2.57097,1.12435 -1.63282,0 -2.58529,-1.12435 -0.94532,-1.12435 -0.94532,-2.8073 z m 1.32487,0.16471 q 0,1.153 0.54428,1.99805 0.55143,0.84506 1.66146,0.84506 1.08138,0 1.63281,-0.83074 0.55144,-0.83789 0.5586,-1.99089 v -0.18619 q 0,-1.13868 -0.55143,-1.99089 -0.55144,-0.85938 -1.6543,-0.85938 -1.09571,0 -1.64714,0.85938 -0.54428,0.85221 -0.54428,1.99089 z"
         style="font-family:Roboto;-inkscape-font-specification:Roboto"
         id="path9755" />
      <path
         d="m 536.17384,641.63387 -0.0286,-0.76628 q -0.75912,0.90951 -2.26303,0.90951 -1.13867,0 -1.8405,-0.67318 -0.70182,-0.67318 -0.70182,-2.22006 v -4.99871 h 1.32487 v 5.01304 q 0,1.04557 0.43685,1.40365 0.44401,0.35091 0.98828,0.35091 1.49675,0 2.01954,-1.12435 v -5.64325 h 1.33204 v 7.74872 z"
         style="font-family:Roboto;-inkscape-font-specification:Roboto"
         id="path9757" />
      <path
         d="m 542.33271,638.69767 h -1.33203 q 0.007,-1.03842 0.28646,-1.55404 0.27929,-0.51563 0.95247,-1.21029 0.47982,-0.49415 0.85222,-0.93816 0.37239,-0.44401 0.37239,-1.17448 0,-0.73763 -0.39388,-1.16732 -0.39388,-0.42969 -1.13867,-0.42969 -0.63021,0 -1.12435,0.34375 -0.49414,0.33659 -0.50131,1.08139 h -1.32487 q 0.0143,-1.21029 0.85938,-1.89779 0.85221,-0.68751 2.09115,-0.68751 1.36784,0 2.11263,0.73047 0.75196,0.73047 0.75196,1.99089 0,0.95964 -0.56576,1.72592 -0.56575,0.75912 -1.23177,1.375 -0.66602,0.61589 -0.66602,1.81186 z m -1.38932,2.27018 q 0,-0.32226 0.20052,-0.54427 0.20052,-0.222 0.58008,-0.222 0.38672,0 0.58724,0.222 0.20052,0.22201 0.20052,0.54427 0,0.30795 -0.20052,0.52995 -0.20052,0.22201 -0.58724,0.22201 -0.37956,0 -0.58008,-0.22201 -0.20052,-0.222 -0.20052,-0.52995 z"
         style="font-family:Roboto;-inkscape-font-specification:Roboto"
         id="path9759" />
    </g>
    <g
       style="fill:#000000"
       id="g52997"
       transform="matrix(0.69952663,0,0,0.69952663,536.80519,376.0668)">
      <g
         id="g53722"
         transform="matrix(0.80557419,0,0,0.80557419,119.03963,378.1907)">
        <path
           d="M 0,0 H 24 V 24 H 0 Z"
           fill="none"
           id="path52985" />
        <path
           d="m 18,7 -1.41,-1.41 -6.34,6.34 1.41,1.41 z M 22.24,5.59 11.66,16.17 7.48,12 6.07,13.41 11.66,19 23.66,7 Z M 0.41,13.41 6,19 7.41,17.59 1.83,12 Z"
           id="path52987"
           style="opacity:0.549459;fill:#ffffff;fill-opacity:1" />
      </g>
    </g>
    <rect
       style="fill:#141a21;fill-opacity:1;stroke:none;stroke-width:2.38937;stroke-linecap:round;stroke-linejoin:round;stroke-miterlimit:4;stroke-dasharray:none;stroke-opacity:1;paint-order:stroke fill markers"
       id="rect32545-3"
       width="157.02795"
       height="59.070896"
       x="450.73322"
       y="522.43457"
       ry="6.50418" />
    <path
       style="fill:#141a21;fill-opacity:1;fill-rule:evenodd;stroke:none;stroke-width:1px;stroke-linecap:butt;stroke-linejoin:miter;stroke-opacity:1"
       d="M 459.69601,522.40539 H 432.9105 l 25.25194,22.64214 z"
       id="path34642-6" />
    <g
       aria-label="Yes I'm back from h
Was super fun ! "
       id="text38925-7"
       style="font-size:14.6667px;line-height:17.3228px;letter-spacing:0px;word-spacing:0px;fill:#ffffff;stroke-width:1px">
      <path
         d="m 466.3831,536.54561 2.70704,5.23504 2.7142,-5.23504 h 1.56836 l -3.59506,6.53127 v 3.89584 h -1.38216 v -3.89584 l -3.59506,-6.53127 z"
         style="font-family:Roboto;-inkscape-font-specification:Roboto"
         id="path9627" />
      <path
         d="m 480.1761,545.6192 q -0.37956,0.57292 -1.07422,1.03841 -0.69466,0.45834 -1.8405,0.45834 -1.61849,0 -2.59245,-1.05274 -0.9668,-1.05274 -0.9668,-2.69271 v -0.30079 q 0,-1.26758 0.47982,-2.1556 0.48698,-0.89518 1.26042,-1.36068 0.77344,-0.47266 1.64714,-0.47266 1.66146,0 2.42057,1.08855 0.76628,1.08138 0.76628,2.70703 v 0.59441 h -5.2422 q 0.0287,1.06706 0.63021,1.81901 0.60873,0.74479 1.66863,0.74479 0.70182,0 1.1888,-0.28645 0.48698,-0.28646 0.85222,-0.76628 z m -3.08659,-5.44988 q -0.78777,0 -1.33204,0.57291 -0.54427,0.57292 -0.68034,1.64714 h 3.87436 v -0.10026 q -0.0501,-0.77344 -0.45117,-1.44662 -0.39388,-0.67317 -1.41081,-0.67317 z"
         style="font-family:Roboto;-inkscape-font-specification:Roboto"
         id="path9629" />
      <path
         d="m 486.33497,544.91737 q 0,-0.42252 -0.31511,-0.75911 -0.30794,-0.34375 -1.43229,-0.57292 -1.29623,-0.26497 -2.0625,-0.76628 -0.76628,-0.50846 -0.76628,-1.47526 0,-0.91667 0.7806,-1.58985 0.78776,-0.67318 2.09115,-0.67318 1.38932,0 2.16993,0.70899 0.7806,0.70898 0.7806,1.71159 h -1.32488 q 0,-0.47982 -0.42252,-0.90235 -0.42253,-0.42968 -1.20313,-0.42968 -0.82357,0 -1.18164,0.35807 -0.35808,0.35807 -0.35808,0.7806 0,0.42253 0.32943,0.6875 0.33659,0.25782 1.41797,0.50131 1.42514,0.32226 2.1198,0.84505 0.70182,0.52279 0.70182,1.47526 0,1.02409 -0.82357,1.66147 -0.81641,0.63737 -2.16992,0.63737 -1.53972,0 -2.35613,-0.78777 -0.81641,-0.78776 -0.81641,-1.7474 h 1.33204 q 0.043,0.82357 0.63021,1.13868 0.5944,0.30794 1.21029,0.30794 0.80924,0 1.23893,-0.3151 0.42969,-0.31511 0.42969,-0.79493 z"
         style="font-family:Roboto;-inkscape-font-specification:Roboto"
         id="path9631" />
      <path
         d="m 494.71389,536.54561 v 10.42711 h -1.38216 v -10.42711 z"
         style="font-family:Roboto;-inkscape-font-specification:Roboto"
         id="path9633" />
      <path
         d="m 497.82914,535.97269 v 0.78776 l -0.15039,2.63543 h -0.92383 l 0.007,-3.42319 z"
         style="font-family:Roboto;-inkscape-font-specification:Roboto"
         id="path9635" />
      <path
         d="m 502.54138,540.19796 q -1.30338,0 -1.7832,1.09571 v 5.67905 h -1.33204 V 539.224 h 1.26042 l 0.0358,0.84506 q 0.83789,-0.98829 2.29167,-0.98829 0.7448,0 1.32488,0.30078 0.58724,0.29362 0.89518,0.94532 0.38672,-0.5586 1.00261,-0.90235 0.62304,-0.34375 1.46094,-0.34375 1.24609,0 1.91927,0.66602 0.68034,0.66602 0.68034,2.13412 v 5.09181 h -1.33203 v -5.10613 q 0,-0.97396 -0.45118,-1.31772 -0.44401,-0.35091 -1.20312,-0.35091 -0.80209,0 -1.26042,0.47982 -0.45834,0.47266 -0.52995,1.153 v 5.14194 h -1.32487 v -5.09897 q 0,-0.90951 -0.45118,-1.28907 -0.45117,-0.38672 -1.20313,-0.38672 z"
         style="font-family:Roboto;-inkscape-font-specification:Roboto"
         id="path9637" />
      <path
         d="m 522.50042,543.1843 q 0,1.69727 -0.78777,2.81446 -0.78776,1.11719 -2.22722,1.11719 -1.4681,0 -2.26302,-1.03842 l -0.0716,0.89519 h -1.21745 v -11.00003 h 1.33204 v 4.0892 q 0.78776,-0.98112 2.20573,-0.98112 1.46094,0 2.24154,1.08855 0.78777,1.08854 0.78777,2.86459 z m -3.35874,-2.98634 q -0.72331,0 -1.17448,0.35091 -0.45117,0.34376 -0.70182,0.85222 v 3.37305 q 0.25781,0.51563 0.71614,0.86654 0.45834,0.35092 1.17449,0.35092 1.07422,0 1.53971,-0.82357 0.47266,-0.83074 0.47266,-1.98373 v -0.15039 q 0,-1.153 -0.45117,-1.99089 -0.44401,-0.84506 -1.57553,-0.84506 z"
         style="font-family:Roboto;-inkscape-font-specification:Roboto"
         id="path9639" />
      <path
         d="m 528.96007,546.97272 q -0.12891,-0.2793 -0.1862,-0.81641 -0.3724,0.39388 -0.93099,0.68034 -0.5586,0.2793 -1.27474,0.2793 -1.18881,0 -1.90496,-0.66602 -0.71614,-0.66602 -0.71614,-1.63282 0,-1.24609 0.94531,-1.89063 0.94532,-0.65169 2.54232,-0.65169 h 1.31055 v -0.61589 q 0,-0.6875 -0.41536,-1.0957 -0.40821,-0.41537 -1.21745,-0.41537 -0.75196,0 -1.21745,0.3724 -0.45834,0.36523 -0.45834,0.85221 h -1.32487 q 0,-0.83073 0.83789,-1.5612 0.8379,-0.73047 2.24154,-0.73047 1.26042,0 2.06967,0.64453 0.80925,0.64454 0.80925,1.94793 v 3.48047 q 0,1.07422 0.27213,1.70443 v 0.11459 z m -2.19857,-1.01693 q 0.71614,0 1.23893,-0.35808 0.52995,-0.35807 0.74479,-0.79492 v -1.59701 h -1.23177 q -2.23438,0.043 -2.23438,1.4323 0,0.55143 0.3724,0.93815 0.37239,0.37956 1.11003,0.37956 z"
         style="font-family:Roboto;-inkscape-font-specification:Roboto"
         id="path9641" />
      <path
         d="m 535.255,546.0274 q 0.70899,0 1.23894,-0.42252 0.53711,-0.42253 0.58724,-1.08139 h 1.26042 q -0.0501,1.03842 -0.95248,1.81902 -0.90234,0.77344 -2.13412,0.77344 -1.7474,0 -2.59961,-1.153 -0.84506,-1.153 -0.84506,-2.7142 v -0.30078 q 0,-1.5612 0.84506,-2.7142 0.85221,-1.153 2.59961,-1.153 1.36068,0 2.19858,0.80925 0.83789,0.80208 0.88802,1.99805 h -1.26042 q -0.0501,-0.71615 -0.54427,-1.21745 -0.48698,-0.5013 -1.28191,-0.5013 -0.8164,0 -1.2819,0.41536 -0.45833,0.41537 -0.65169,1.05274 -0.1862,0.63737 -0.1862,1.31055 v 0.30078 q 0,0.68034 0.1862,1.31771 0.18619,0.63737 0.64453,1.05274 0.46549,0.4082 1.28906,0.4082 z"
         style="font-family:Roboto;-inkscape-font-specification:Roboto"
         id="path9643" />
      <path
         d="m 544.68667,546.97272 -2.68556,-3.59506 -0.83789,0.86654 v 2.72852 h -1.33203 v -11.00003 h 1.33203 v 6.64585 l 0.70899,-0.84505 2.40625,-2.54949 h 1.6185 l -3.02215,3.22983 3.37306,4.51889 z"
         style="font-family:Roboto;-inkscape-font-specification:Roboto"
         id="path9645" />
      <path
         d="m 554.52653,540.24093 h -1.64714 v 6.73179 h -1.32487 v -6.73179 h -1.22461 V 539.224 h 1.22461 v -0.86654 q 0.0143,-1.23177 0.6875,-1.88346 0.68034,-0.6517 1.85482,-0.6517 0.43685,0 0.91667,0.11458 l -0.0716,1.08139 q -0.30078,-0.0645 -0.71615,-0.0645 -1.32487,0 -1.34636,1.41081 v 0.85938 h 1.64714 z"
         style="font-family:Roboto;-inkscape-font-specification:Roboto"
         id="path9647" />
      <path
         d="m 559.09555,540.35551 q -1.29622,0 -1.76888,1.11719 v 5.50002 H 556.0018 V 539.224 h 1.28906 l 0.0287,0.88802 q 0.63737,-1.03125 1.8405,-1.03125 0.37239,0 0.58724,0.10026 l -0.007,1.23178 q -0.29363,-0.0573 -0.64454,-0.0573 z"
         style="font-family:Roboto;-inkscape-font-specification:Roboto"
         id="path9649" />
      <path
         d="m 560.47772,543.01958 q 0,-1.68294 0.94531,-2.80729 0.94532,-1.13152 2.57097,-1.13152 1.62566,0 2.57097,1.11003 0.94532,1.10287 0.9668,2.75717 v 0.23633 q 0,1.68294 -0.95247,2.8073 -0.94532,1.12435 -2.57097,1.12435 -1.63282,0 -2.5853,-1.12435 -0.94531,-1.12436 -0.94531,-2.8073 z m 1.32487,0.16472 q 0,1.15299 0.54427,1.99805 0.55144,0.84505 1.66147,0.84505 1.08138,0 1.63281,-0.83073 0.55144,-0.83789 0.5586,-1.99089 v -0.1862 q 0,-1.13867 -0.55144,-1.99089 -0.55143,-0.85937 -1.6543,-0.85937 -1.0957,0 -1.64714,0.85937 -0.54427,0.85222 -0.54427,1.99089 z"
         style="font-family:Roboto;-inkscape-font-specification:Roboto"
         id="path9651" />
      <path
         d="m 572.29415,540.19796 q -1.30339,0 -1.78321,1.09571 v 5.67905 h -1.33203 V 539.224 h 1.26042 l 0.0358,0.84506 q 0.83789,-0.98829 2.29167,-0.98829 0.74479,0 1.32487,0.30078 0.58724,0.29362 0.89519,0.94532 0.38671,-0.5586 1.0026,-0.90235 0.62305,-0.34375 1.46094,-0.34375 1.2461,0 1.91928,0.66602 0.68034,0.66602 0.68034,2.13412 v 5.09181 h -1.33204 v -5.10613 q 0,-0.97396 -0.45117,-1.31772 -0.44401,-0.35091 -1.20313,-0.35091 -0.80208,0 -1.26042,0.47982 -0.45833,0.47266 -0.52995,1.153 v 5.14194 h -1.32487 v -5.09897 q 0,-0.90951 -0.45117,-1.28907 -0.45117,-0.38672 -1.20313,-0.38672 z"
         style="font-family:Roboto;-inkscape-font-specification:Roboto"
         id="path9653" />
      <path
         d="m 588.90877,540.19796 q -0.63737,0 -1.12435,0.34375 -0.48698,0.34375 -0.76628,0.89519 v 5.53582 h -1.32487 v -11.00003 h 1.32487 v 4.17514 q 0.88086,-1.06706 2.28451,-1.06706 1.13868,0 1.8047,0.63737 0.67317,0.63737 0.68034,2.14128 v 5.1133 h -1.33204 v -5.09181 q 0,-0.90951 -0.40104,-1.29623 -0.39388,-0.38672 -1.14584,-0.38672 z"
         style="font-family:Roboto;-inkscape-font-specification:Roboto"
         id="path9655" />
      <path
         d="m 477.39029,554.37815 -2.52084,10.42711 h -1.25326 l -2.14844,-7.59833 -0.16472,-0.79492 -0.16471,0.79492 -2.22722,7.59833 h -1.25326 l -2.528,-10.42711 h 1.37501 l 1.64714,7.13283 0.20768,1.38216 0.28646,-1.23893 2.06966,-7.27606 h 1.153 l 2.01238,7.27606 0.29362,1.26758 0.222,-1.41797 1.61133,-7.12567 z"
         style="font-family:Roboto;-inkscape-font-specification:Roboto"
         id="path9657" />
      <path
         d="m 483.2627,564.80526 q -0.12891,-0.2793 -0.1862,-0.81641 -0.3724,0.39388 -0.93099,0.68034 -0.5586,0.2793 -1.27475,0.2793 -1.1888,0 -1.90495,-0.66602 -0.71615,-0.66602 -0.71615,-1.63282 0,-1.24609 0.94532,-1.89063 0.94531,-0.65169 2.54232,-0.65169 h 1.31055 v -0.61589 q 0,-0.6875 -0.41536,-1.0957 -0.40821,-0.41537 -1.21745,-0.41537 -0.75196,0 -1.21745,0.3724 -0.45834,0.36523 -0.45834,0.85221 h -1.32487 q 0,-0.83073 0.83789,-1.5612 0.83789,-0.73047 2.24154,-0.73047 1.26042,0 2.06967,0.64453 0.80925,0.64454 0.80925,1.94793 v 3.48047 q 0,1.07422 0.27213,1.70443 v 0.11459 z m -2.19858,-1.01693 q 0.71615,0 1.23894,-0.35808 0.52995,-0.35807 0.74479,-0.79492 v -1.59701 h -1.23177 q -2.23438,0.043 -2.23438,1.4323 0,0.55143 0.3724,0.93815 0.37239,0.37956 1.11002,0.37956 z"
         style="font-family:Roboto;-inkscape-font-specification:Roboto"
         id="path9659" />
      <path
         d="m 490.96844,562.74991 q 0,-0.42252 -0.3151,-0.75911 -0.30794,-0.34375 -1.4323,-0.57292 -1.29622,-0.26498 -2.0625,-0.76628 -0.76628,-0.50846 -0.76628,-1.47526 0,-0.91667 0.7806,-1.58985 0.78776,-0.67318 2.09115,-0.67318 1.38933,0 2.16993,0.70899 0.7806,0.70898 0.7806,1.71159 h -1.32487 q 0,-0.47982 -0.42253,-0.90235 -0.42253,-0.42968 -1.20313,-0.42968 -0.82357,0 -1.18164,0.35807 -0.35807,0.35807 -0.35807,0.7806 0,0.42253 0.32942,0.6875 0.33659,0.25782 1.41798,0.50131 1.42513,0.32226 2.11979,0.84505 0.70183,0.52279 0.70183,1.47526 0,1.02409 -0.82357,1.66147 -0.81641,0.63737 -2.16993,0.63737 -1.53972,0 -2.35612,-0.78777 -0.81641,-0.78776 -0.81641,-1.7474 h 1.33203 q 0.043,0.82357 0.63021,1.13868 0.5944,0.30794 1.21029,0.30794 0.80925,0 1.23894,-0.3151 0.42968,-0.31511 0.42968,-0.79493 z"
         style="font-family:Roboto;-inkscape-font-specification:Roboto"
         id="path9661" />
      <path
         d="m 502.17615,562.74991 q 0,-0.42252 -0.3151,-0.75911 -0.30795,-0.34375 -1.4323,-0.57292 -1.29622,-0.26498 -2.0625,-0.76628 -0.76628,-0.50846 -0.76628,-1.47526 0,-0.91667 0.7806,-1.58985 0.78776,-0.67318 2.09115,-0.67318 1.38933,0 2.16993,0.70899 0.7806,0.70898 0.7806,1.71159 h -1.32487 q 0,-0.47982 -0.42253,-0.90235 -0.42253,-0.42968 -1.20313,-0.42968 -0.82357,0 -1.18164,0.35807 -0.35808,0.35807 -0.35808,0.7806 0,0.42253 0.32943,0.6875 0.33659,0.25782 1.41797,0.50131 1.42514,0.32226 2.1198,0.84505 0.70183,0.52279 0.70183,1.47526 0,1.02409 -0.82357,1.66147 -0.81641,0.63737 -2.16993,0.63737 -1.53972,0 -2.35613,-0.78777 -0.8164,-0.78776 -0.8164,-1.7474 h 1.33203 q 0.043,0.82357 0.63021,1.13868 0.5944,0.30794 1.21029,0.30794 0.80925,0 1.23893,-0.3151 0.42969,-0.31511 0.42969,-0.79493 z"
         style="font-family:Roboto;-inkscape-font-specification:Roboto"
         id="path9663" />
      <path
         d="m 510.03945,564.80526 -0.0286,-0.76628 q -0.75912,0.90951 -2.26303,0.90951 -1.13867,0 -1.8405,-0.67318 -0.70182,-0.67318 -0.70182,-2.22006 v -4.99871 h 1.32487 v 5.01303 q 0,1.04558 0.43685,1.40365 0.44401,0.35092 0.98828,0.35092 1.49675,0 2.01954,-1.12436 v -5.64324 h 1.33203 v 7.74872 z"
         style="font-family:Roboto;-inkscape-font-specification:Roboto"
         id="path9665" />
      <path
         d="m 516.85718,564.94849 q -1.39649,0 -2.2129,-0.89519 v 3.73113 h -1.33203 v -10.72789 h 1.21745 l 0.0644,0.85222 q 0.81641,-0.99545 2.24154,-0.99545 1.4681,0 2.2487,1.08855 0.7806,1.08854 0.7806,2.86459 v 0.15039 q 0,1.69727 -0.78776,2.81446 -0.7806,1.11719 -2.22005,1.11719 z m -0.40821,-6.91799 q -1.20313,0 -1.80469,1.06706 v 3.70965 q 0.60873,1.05273 1.81901,1.05273 1.07423,0 1.56837,-0.84505 0.5013,-0.84506 0.5013,-1.99805 v -0.15039 q 0,-1.153 -0.5013,-1.99089 -0.49414,-0.84506 -1.58269,-0.84506 z"
         style="font-family:Roboto;-inkscape-font-specification:Roboto"
         id="path9667" />
      <path
         d="m 527.68532,563.45174 q -0.37955,0.57292 -1.07422,1.03841 -0.69466,0.45834 -1.8405,0.45834 -1.61849,0 -2.59245,-1.05274 -0.9668,-1.05274 -0.9668,-2.69271 v -0.30079 q 0,-1.26758 0.47982,-2.1556 0.48698,-0.89518 1.26042,-1.36068 0.77344,-0.47266 1.64714,-0.47266 1.66146,0 2.42058,1.08855 0.76627,1.08138 0.76627,2.70703 v 0.59441 h -5.24219 q 0.0286,1.06706 0.63021,1.81901 0.60872,0.74479 1.66862,0.74479 0.70182,0 1.1888,-0.28646 0.48698,-0.28645 0.85222,-0.76627 z m -3.08659,-5.44988 q -0.78776,0 -1.33204,0.57291 -0.54427,0.57292 -0.68034,1.64714 h 3.87436 v -0.10026 q -0.0501,-0.77344 -0.45117,-1.44662 -0.39388,-0.67317 -1.41081,-0.67317 z"
         style="font-family:Roboto;-inkscape-font-specification:Roboto"
         id="path9669" />
      <path
         d="m 532.42622,558.18805 q -1.29623,0 -1.76888,1.11719 v 5.50002 h -1.32488 v -7.74872 h 1.28907 l 0.0286,0.88802 q 0.63737,-1.03125 1.8405,-1.03125 0.37239,0 0.58724,0.10026 l -0.007,1.23178 q -0.29362,-0.0573 -0.64453,-0.0573 z"
         style="font-family:Roboto;-inkscape-font-specification:Roboto"
         id="path9671" />
      <path
         d="m 541.56426,558.07347 h -1.64714 v 6.73179 h -1.32487 v -6.73179 h -1.22461 v -1.01693 h 1.22461 V 556.19 q 0.0143,-1.23177 0.6875,-1.88346 0.68034,-0.6517 1.85482,-0.6517 0.43685,0 0.91667,0.11458 l -0.0716,1.08139 q -0.30079,-0.0645 -0.71615,-0.0645 -1.32487,0 -1.34636,1.41081 v 0.85938 h 1.64714 z"
         style="font-family:Roboto;-inkscape-font-specification:Roboto"
         id="path9673" />
      <path
         d="m 547.84487,564.80526 -0.0286,-0.76628 q -0.75912,0.90951 -2.26303,0.90951 -1.13867,0 -1.8405,-0.67318 -0.70182,-0.67318 -0.70182,-2.22006 v -4.99871 h 1.32487 v 5.01303 q 0,1.04558 0.43685,1.40365 0.44401,0.35092 0.98828,0.35092 1.49675,0 2.01954,-1.12436 v -5.64324 h 1.33203 v 7.74872 z"
         style="font-family:Roboto;-inkscape-font-specification:Roboto"
         id="path9675" />
      <path
         d="m 554.34034,558.0305 q -0.63737,0 -1.12435,0.34375 -0.48699,0.34375 -0.76628,0.89519 v 5.53582 h -1.32488 v -7.74872 h 1.25326 l 0.043,0.9668 q 0.88086,-1.11003 2.31316,-1.11003 1.13867,0 1.80469,0.63737 0.67318,0.63737 0.68034,2.14128 v 5.1133 h -1.33203 v -5.09181 q 0,-0.90951 -0.40105,-1.29623 -0.39388,-0.38672 -1.14583,-0.38672 z"
         style="font-family:Roboto;-inkscape-font-specification:Roboto"
         id="path9677" />
      <path
         d="m 564.43801,554.37815 -0.0931,7.48374 h -1.19597 l -0.10026,-7.48374 z m -1.43229,9.76109 q 0,-0.32227 0.19336,-0.54427 0.20052,-0.22201 0.58724,-0.22201 0.37956,0 0.58008,0.22201 0.20768,0.222 0.20768,0.54427 0,0.30794 -0.20768,0.52995 -0.20052,0.222 -0.58008,0.222 -0.38672,0 -0.58724,-0.222 -0.19336,-0.22201 -0.19336,-0.52995 z"
         style="font-family:Roboto;-inkscape-font-specification:Roboto"
         id="path9679" />
    </g>
    <circle
       style="opacity:1;fill:#ff9800;fill-opacity:1;stroke:none;stroke-width:2.64567;stroke-linecap:round;stroke-linejoin:round;stroke-miterlimit:4;stroke-dasharray:none;stroke-opacity:1;paint-order:stroke fill markers"
       id="path56398"
       cx="677.15881"
       cy="618.7774"
       r="17.958248" />
    <circle
       style="opacity:1;fill:#cddc39;fill-opacity:1;stroke:none;stroke-width:2.64567;stroke-linecap:round;stroke-linejoin:round;stroke-miterlimit:4;stroke-dasharray:none;stroke-opacity:1;paint-order:stroke fill markers"
       id="path56398-1"
       cx="412.12518"
       cy="540.39954"
       r="17.958248" />
    <rect
       style="fill:#141a21;fill-opacity:1;stroke:none;stroke-width:1.91301;stroke-linecap:round;stroke-linejoin:round;stroke-miterlimit:4;stroke-dasharray:none;stroke-opacity:1;paint-order:stroke fill markers"
       id="rect32545-3-6"
       width="157.02795"
       height="37.865208"
       x="450.03448"
       y="466.60358"
       ry="4.1692634" />
    <path
       style="fill:#141a21;fill-opacity:1;fill-rule:evenodd;stroke:none;stroke-width:1px;stroke-linecap:butt;stroke-linejoin:miter;stroke-opacity:1"
       d="m 458.99726,466.57442 h -26.78551 l 25.25194,22.64214 z"
       id="path34642-6-1" />
    <g
       aria-label="Oh, you're here ? "
       id="text38925-7-8"
       style="font-size:14.6667px;line-height:17.3228px;letter-spacing:0px;word-spacing:0px;fill:#ffffff;stroke-width:1px">
      <path
         d="m 473.23257,486.25763 q 0,2.34896 -1.13868,3.68816 -1.13867,1.33919 -3.04363,1.33919 -1.85482,0 -3.0293,-1.33919 -1.17448,-1.3392 -1.17448,-3.68816 v -0.65886 q 0,-2.3418 1.16732,-3.681 1.16732,-1.34635 3.02214,-1.34635 1.89063,0 3.0293,1.32487 1.14584,1.31771 1.16733,3.61654 z m -1.36785,-0.67318 q 0,-1.86198 -0.74479,-2.85027 -0.74479,-0.98828 -2.08399,-0.98828 -1.2819,0 -2.05534,0.98828 -0.76628,0.98829 -0.76628,2.85027 v 0.67318 q 0,1.8763 0.77344,2.87175 0.7806,0.98828 2.0625,0.98828 1.34636,0 2.07683,-0.98828 0.73763,-0.99545 0.73763,-2.87175 z"
         style="font-family:Roboto;-inkscape-font-specification:Roboto"
         id="path9682" />
      <path
         d="m 478.31005,484.367 q -0.63737,0 -1.12435,0.34375 -0.48698,0.34375 -0.76628,0.89518 v 5.53582 h -1.32487 v -11.00002 h 1.32487 v 4.17514 q 0.88086,-1.06706 2.28451,-1.06706 1.13868,0 1.80469,0.63737 0.67318,0.63737 0.68034,2.14128 v 5.11329 h -1.33203 v -5.0918 q 0,-0.90951 -0.40104,-1.29623 -0.39388,-0.38672 -1.14584,-0.38672 z"
         style="font-family:Roboto;-inkscape-font-specification:Roboto"
         id="path9684" />
      <path
         d="m 484.37582,489.56623 v 1.06706 q 0,0.65169 -0.32943,1.375 -0.32943,0.73047 -0.92383,1.21745 l -0.75195,-0.52278 q 0.6875,-0.95964 0.70898,-1.96225 v -1.17448 z"
         style="font-family:Roboto;-inkscape-font-specification:Roboto"
         id="path9686" />
      <path
         d="m 492.33938,492.33772 q -0.6875,1.81902 -2.07683,1.92644 l -0.222,0.007 q -0.42253,0 -0.7448,-0.11458 l -0.007,-1.07423 0.35807,0.0286 q 0.67318,0 1.05274,-0.2793 0.37956,-0.27213 0.62305,-0.98828 l 0.28646,-0.78776 -2.76433,-7.66278 h 1.44662 l 1.94076,5.80079 1.79753,-5.80079 h 1.41797 z"
         style="font-family:Roboto;-inkscape-font-specification:Roboto"
         id="path9688" />
      <path
         d="m 496.17793,487.18862 q 0,-1.68295 0.94531,-2.8073 0.94532,-1.13151 2.57097,-1.13151 1.62566,0 2.57097,1.11003 0.94532,1.10286 0.9668,2.75717 v 0.23632 q 0,1.68295 -0.95247,2.8073 -0.94532,1.12435 -2.57097,1.12435 -1.63282,0 -2.5853,-1.12435 -0.94531,-1.12435 -0.94531,-2.8073 z m 1.32487,0.16471 q 0,1.153 0.54427,1.99806 0.55144,0.84505 1.66147,0.84505 1.08138,0 1.63281,-0.83073 0.55144,-0.83789 0.5586,-1.99089 v -0.1862 q 0,-1.13867 -0.55144,-1.99089 -0.55143,-0.85938 -1.6543,-0.85938 -1.0957,0 -1.64714,0.85938 -0.54427,0.85222 -0.54427,1.99089 z"
         style="font-family:Roboto;-inkscape-font-specification:Roboto"
         id="path9690" />
      <path
         d="m 509.69879,491.14175 -0.0286,-0.76627 q -0.75912,0.9095 -2.26303,0.9095 -1.13867,0 -1.8405,-0.67317 -0.70182,-0.67318 -0.70182,-2.22006 v -4.99871 h 1.32487 v 5.01303 q 0,1.04558 0.43685,1.40365 0.44401,0.35091 0.98828,0.35091 1.49675,0 2.01954,-1.12435 v -5.64324 h 1.33203 v 7.74871 z"
         style="font-family:Roboto;-inkscape-font-specification:Roboto"
         id="path9692" />
      <path
         d="m 513.788,480.14173 v 0.78776 l -0.15039,2.63542 h -0.92383 l 0.007,-3.42318 z"
         style="font-family:Roboto;-inkscape-font-specification:Roboto"
         id="path9694" />
      <path
         d="m 518.63632,484.52455 q -1.29623,0 -1.76889,1.11719 v 5.50001 h -1.32487 v -7.74871 h 1.28906 l 0.0286,0.88802 q 0.63737,-1.03125 1.8405,-1.03125 0.3724,0 0.58724,0.10026 l -0.007,1.23177 q -0.29362,-0.0573 -0.64453,-0.0573 z"
         style="font-family:Roboto;-inkscape-font-specification:Roboto"
         id="path9696" />
      <path
         d="m 526.50677,489.78824 q -0.37955,0.57291 -1.07422,1.03841 -0.69466,0.45833 -1.8405,0.45833 -1.61849,0 -2.59245,-1.05273 -0.9668,-1.05274 -0.9668,-2.69272 v -0.30078 q 0,-1.26758 0.47982,-2.1556 0.48698,-0.89519 1.26042,-1.36068 0.77344,-0.47266 1.64714,-0.47266 1.66146,0 2.42058,1.08854 0.76627,1.08139 0.76627,2.70704 v 0.5944 h -5.2422 q 0.0286,1.06706 0.63021,1.81902 0.60873,0.74479 1.66863,0.74479 0.70182,0 1.1888,-0.28646 0.48698,-0.28646 0.85222,-0.76628 z m -3.08659,-5.44989 q -0.78776,0 -1.33204,0.57292 -0.54427,0.57292 -0.68034,1.64714 h 3.87436 v -0.10026 q -0.0501,-0.77344 -0.45117,-1.44662 -0.39388,-0.67318 -1.41081,-0.67318 z"
         style="font-family:Roboto;-inkscape-font-specification:Roboto"
         id="path9698" />
      <path
         d="m 535.00744,484.367 q -0.63737,0 -1.12435,0.34375 -0.48698,0.34375 -0.76628,0.89518 v 5.53582 h -1.32487 v -11.00002 h 1.32487 v 4.17514 q 0.88087,-1.06706 2.28451,-1.06706 1.13868,0 1.8047,0.63737 0.67317,0.63737 0.68034,2.14128 v 5.11329 h -1.33204 v -5.0918 q 0,-0.90951 -0.40104,-1.29623 -0.39388,-0.38672 -1.14584,-0.38672 z"
         style="font-family:Roboto;-inkscape-font-specification:Roboto"
         id="path9700" />
      <path
         d="m 546.00031,489.78824 q -0.37956,0.57291 -1.07422,1.03841 -0.69466,0.45833 -1.8405,0.45833 -1.61849,0 -2.59245,-1.05273 -0.9668,-1.05274 -0.9668,-2.69272 v -0.30078 q 0,-1.26758 0.47982,-2.1556 0.48698,-0.89519 1.26042,-1.36068 0.77344,-0.47266 1.64714,-0.47266 1.66146,0 2.42057,1.08854 0.76628,1.08139 0.76628,2.70704 v 0.5944 h -5.2422 q 0.0286,1.06706 0.63021,1.81902 0.60873,0.74479 1.66863,0.74479 0.70182,0 1.1888,-0.28646 0.48698,-0.28646 0.85222,-0.76628 z m -3.08659,-5.44989 q -0.78777,0 -1.33204,0.57292 -0.54427,0.57292 -0.68034,1.64714 h 3.87436 v -0.10026 q -0.0501,-0.77344 -0.45117,-1.44662 -0.39388,-0.67318 -1.41081,-0.67318 z"
         style="font-family:Roboto;-inkscape-font-specification:Roboto"
         id="path9702" />
      <path
         d="m 550.74121,484.52455 q -1.29623,0 -1.76889,1.11719 v 5.50001 h -1.32487 v -7.74871 h 1.28906 l 0.0286,0.88802 q 0.63737,-1.03125 1.8405,-1.03125 0.3724,0 0.58724,0.10026 l -0.007,1.23177 q -0.29362,-0.0573 -0.64453,-0.0573 z"
         style="font-family:Roboto;-inkscape-font-specification:Roboto"
         id="path9704" />
      <path
         d="m 558.61166,489.78824 q -0.37956,0.57291 -1.07422,1.03841 -0.69466,0.45833 -1.8405,0.45833 -1.61849,0 -2.59245,-1.05273 -0.9668,-1.05274 -0.9668,-2.69272 v -0.30078 q 0,-1.26758 0.47982,-2.1556 0.48698,-0.89519 1.26042,-1.36068 0.77344,-0.47266 1.64714,-0.47266 1.66146,0 2.42058,1.08854 0.76627,1.08139 0.76627,2.70704 v 0.5944 h -5.2422 q 0.0286,1.06706 0.63021,1.81902 0.60873,0.74479 1.66863,0.74479 0.70182,0 1.1888,-0.28646 0.48698,-0.28646 0.85222,-0.76628 z m -3.08659,-5.44989 q -0.78777,0 -1.33204,0.57292 -0.54427,0.57292 -0.68034,1.64714 h 3.87436 v -0.10026 q -0.0501,-0.77344 -0.45117,-1.44662 -0.39388,-0.67318 -1.41081,-0.67318 z"
         style="font-family:Roboto;-inkscape-font-specification:Roboto"
         id="path9706" />
      <path
         d="m 566.77574,488.20555 h -1.33203 q 0.007,-1.03841 0.28646,-1.55404 0.2793,-0.51563 0.95247,-1.21029 0.47982,-0.49414 0.85222,-0.93815 0.3724,-0.44401 0.3724,-1.17448 0,-0.73764 -0.39389,-1.16733 -0.39388,-0.42968 -1.13867,-0.42968 -0.63021,0 -1.12435,0.34375 -0.49414,0.33659 -0.5013,1.08138 h -1.32488 q 0.0143,-1.21029 0.85938,-1.89779 0.85222,-0.6875 2.09115,-0.6875 1.36784,0 2.11264,0.73047 0.75195,0.73047 0.75195,1.99089 0,0.95964 -0.56576,1.72591 -0.56575,0.75912 -1.23177,1.37501 -0.66602,0.61588 -0.66602,1.81185 z m -1.38932,2.27019 q 0,-0.32227 0.20052,-0.54428 0.20052,-0.222 0.58008,-0.222 0.38672,0 0.58724,0.222 0.20052,0.22201 0.20052,0.54428 0,0.30794 -0.20052,0.52995 -0.20052,0.222 -0.58724,0.222 -0.37956,0 -0.58008,-0.222 -0.20052,-0.22201 -0.20052,-0.52995 z"
         style="font-family:Roboto;-inkscape-font-specification:Roboto"
         id="path9708" />
    </g>
    <circle
       style="fill:#009688;fill-opacity:1;stroke:none;stroke-width:2.64567;stroke-linecap:round;stroke-linejoin:round;stroke-miterlimit:4;stroke-dasharray:none;stroke-opacity:1;paint-order:stroke fill markers"
       id="path56398-1-7"
       cx="412.38782"
       cy="484.21765"
       r="17.958248" />
    <rect
       style="opacity:0.549459;fill:#141a21;fill-opacity:1;stroke:none;stroke-width:2.64567;stroke-linecap:round;stroke-linejoin:round;stroke-miterlimit:4;stroke-dasharray:none;stroke-opacity:1;paint-order:stroke fill markers"
       id="rect57316"
       width="166.86494"
       height="22.81864"
       x="408.85364"
       y="668.34387"
       ry="6.50418" />
    <path
       style="fill:none;fill-rule:evenodd;stroke:#505050;stroke-width:2;stroke-linecap:round;stroke-linejoin:miter;stroke-miterlimit:4;stroke-dasharray:none;stroke-opacity:1"
       d="M 417.31814,686.32959 H 567.25408"
       id="path61489" />
    <g
       style="fill:#000000"
       id="g61791"
       transform="matrix(0.72201079,0,0,0.72201079,584.13849,671.19014)">
      <path
         d="M 0,0 H 24 V 24 H 0 Z"
         fill="none"
         id="path61779" />
      <path
         d="M 0.01,21 21,12 0.01,3 0,10 15,12 0,14 Z"
         id="path61781"
         style="opacity:0.388761;fill:#ffffff;fill-opacity:1" />
    </g>
    <g
       id="g96177"
       transform="translate(-101.22863,211.74228)">
      <circle
         style="opacity:1;fill:#795548;fill-opacity:1;stroke:none;stroke-width:2.42533;stroke-linecap:butt;stroke-linejoin:round;stroke-miterlimit:4;stroke-dasharray:none;stroke-opacity:1;paint-order:stroke fill markers"
         id="path95391"
         cx="363.8566"
         cy="261.34271"
         r="11.445526" />
      <path
         style="fill:none;fill-rule:evenodd;stroke:#ffffff;stroke-width:3;stroke-linecap:round;stroke-linejoin:miter;stroke-miterlimit:4;stroke-dasharray:none;stroke-opacity:0.28902"
         d="m 384.31485,256.70372 h 86.56474"
         id="path95626"
         sodipodi:nodetypes="cc" />
      <path
         style="fill:none;fill-rule:evenodd;stroke:#ffffff;stroke-width:3;stroke-linecap:round;stroke-linejoin:miter;stroke-miterlimit:4;stroke-dasharray:none;stroke-opacity:0.28902"
         d="m 384.31485,266.21797 h 64.0488"
         id="path95628"
         sodipodi:nodetypes="cc" />
    </g>
    <circle
       style="fill:#00bcd4;fill-opacity:1;stroke:none;stroke-width:2.42533;stroke-linecap:butt;stroke-linejoin:round;stroke-miterlimit:4;stroke-dasharray:none;stroke-opacity:1;paint-order:stroke fill markers"
       id="path95391-3"
       cx="262.62796"
       cy="514.76898"
       r="11.445526" />
    <path
       style="fill:none;fill-rule:evenodd;stroke:#ffffff;stroke-width:3;stroke-linecap:round;stroke-linejoin:miter;stroke-miterlimit:4;stroke-dasharray:none;stroke-opacity:0.28902"
       d="m 282.89511,510.13 h 75.53572"
       id="path95626-1"
       sodipodi:nodetypes="cc" />
    <path
       style="fill:none;fill-rule:evenodd;stroke:#ffffff;stroke-width:3;stroke-linecap:round;stroke-linejoin:miter;stroke-miterlimit:4;stroke-dasharray:none;stroke-opacity:0.28902"
       d="m 283.49598,519.64425 h 64.0488"
       id="path95628-9"
       sodipodi:nodetypes="cc" />
    <circle
       style="fill:#ffc107;fill-opacity:1;stroke:none;stroke-width:2.42533;stroke-linecap:butt;stroke-linejoin:round;stroke-miterlimit:4;stroke-dasharray:none;stroke-opacity:1;paint-order:stroke fill markers"
       id="path95391-7"
       cx="262.62796"
       cy="556.453"
       r="11.445526" />
    <path
       style="fill:#ffc107;fill-opacity:1;fill-rule:evenodd;stroke:#ffffff;stroke-width:3;stroke-linecap:round;stroke-linejoin:miter;stroke-miterlimit:4;stroke-dasharray:none;stroke-opacity:0.28902"
       d="m 283.49598,551.81401 h 86.56474"
       id="path95626-8"
       sodipodi:nodetypes="cc" />
    <path
       style="fill:#ffc107;fill-opacity:1;fill-rule:evenodd;stroke:#ffffff;stroke-width:3;stroke-linecap:round;stroke-linejoin:miter;stroke-miterlimit:4;stroke-dasharray:none;stroke-opacity:0.28902"
       d="m 284.09685,561.32826 h 89.7055"
       id="path95628-4"
       sodipodi:nodetypes="cc" />
    <circle
       style="fill:#e91e63;fill-opacity:1;stroke:none;stroke-width:2.42533;stroke-linecap:butt;stroke-linejoin:round;stroke-miterlimit:4;stroke-dasharray:none;stroke-opacity:1;paint-order:stroke fill markers"
       id="path95391-0"
       cx="262.62796"
       cy="598.13702"
       r="11.445526" />
    <path
       style="fill:none;fill-rule:evenodd;stroke:#ffffff;stroke-width:3;stroke-linecap:round;stroke-linejoin:miter;stroke-miterlimit:4;stroke-dasharray:none;stroke-opacity:0.28902"
       d="m 283.49598,593.49802 h 46.32081"
       id="path95626-3"
       sodipodi:nodetypes="cc" />
    <path
       style="fill:none;fill-rule:evenodd;stroke:#ffffff;stroke-width:3;stroke-linecap:round;stroke-linejoin:miter;stroke-miterlimit:4;stroke-dasharray:none;stroke-opacity:0.28902"
       d="m 283.49598,603.01227 h 72.15379"
       id="path95628-6"
       sodipodi:nodetypes="cc" />
    <circle
       style="fill:#689f38;fill-opacity:1;stroke:none;stroke-width:2.42533;stroke-linecap:butt;stroke-linejoin:round;stroke-miterlimit:4;stroke-dasharray:none;stroke-opacity:1;paint-order:stroke fill markers"
       id="path95391-7-0"
       cx="262.0271"
       cy="637.94946"
       r="11.445526" />
    <path
       style="opacity:0.187875;fill:#666666;fill-opacity:1;fill-rule:evenodd;stroke:none;stroke-width:1px;stroke-linecap:butt;stroke-linejoin:miter;stroke-opacity:1;filter:url(#filter1384)"
       d="m 239.78099,641.31386 c 27.46592,-62.63479 43.30522,21.53124 43.30522,21.53124 29.96266,-25.42669 102.47101,-28.54824 134.23193,23.48449 31.91924,-2.23209 -79.4176,-57.35327 -88.52051,-9.54134 l -11.06282,37.2574 z"
       id="path97806-6"
       sodipodi:nodetypes="cccccc" />
    <path
       style="fill:#ffc107;fill-opacity:1;fill-rule:evenodd;stroke:#ffffff;stroke-width:3;stroke-linecap:round;stroke-linejoin:miter;stroke-miterlimit:4;stroke-dasharray:none;stroke-opacity:0.28902"
       d="m 282.89511,633.31047 h 86.56474"
       id="path95626-8-6"
       sodipodi:nodetypes="cc" />
    <path
       style="fill:#ffc107;fill-opacity:1;fill-rule:evenodd;stroke:#ffffff;stroke-width:3;stroke-linecap:round;stroke-linejoin:miter;stroke-miterlimit:4;stroke-dasharray:none;stroke-opacity:0.28902"
       d="m 282.89511,642.82472 h 89.7055"
       id="path95628-4-3"
       sodipodi:nodetypes="cc" />
    <path
       style="fill:url(#radialGradient98603);fill-opacity:1;fill-rule:evenodd;stroke:none;stroke-width:1px;stroke-linecap:butt;stroke-linejoin:miter;stroke-opacity:1"
       d="m 161.42944,645.12597 c 27.46592,-62.63479 121.65677,17.71913 121.65677,17.71913 29.96266,-25.42669 102.47101,-28.54824 134.23193,23.48449 31.91924,-2.23209 57.55823,31.26986 48.45532,79.08179 l -279.68533,32.60293 z"
       id="path97806"
       sodipodi:nodetypes="cccccc" />
    <g
       id="g98912"
       transform="translate(276.18506,140.1928)">
      <g
         style="fill:#b3b3b3;fill-opacity:1"
         id="g73141"
         transform="matrix(2.5687476,0,0,2.5687476,304.91491,284.90103)">
        <path
           d="m 12,22 c 1.1,0 2,-0.9 2,-2 h -4 c 0,1.1 0.89,2 2,2 z m 6,-6 V 11 C 18,7.93 16.36,5.36 13.5,4.68 V 4 C 13.5,3.17 12.83,2.5 12,2.5 11.17,2.5 10.5,3.17 10.5,4 V 4.68 C 7.63,5.36 6,7.92 6,11 v 5 l -2,2 v 1 h 16 v -1 z"
           id="path73132"
           style="fill:#b3b3b3;fill-opacity:1" />
      </g>
      <rect
         style="opacity:1;fill:#ff5722;fill-opacity:1;stroke:none;stroke-width:1.57232;stroke-linecap:round;stroke-linejoin:round;stroke-miterlimit:4;stroke-dasharray:none;stroke-opacity:1;paint-order:stroke fill markers"
         id="rect73561"
         width="20.829515"
         height="19.859383"
         x="342.36951"
         y="319.01999"
         ry="3.9799769" />
      <text
         xml:space="preserve"
         style="font-style:normal;font-variant:normal;font-weight:normal;font-stretch:normal;font-size:18.6667px;line-height:35px;font-family:Roboto;-inkscape-font-specification:Roboto;letter-spacing:0px;word-spacing:0px;fill:#ffffff;fill-opacity:1;stroke:none;stroke-width:1px;stroke-linecap:butt;stroke-linejoin:miter;stroke-opacity:1"
         x="347.80615"
         y="335.67725"
         id="text76157"><tspan
           sodipodi:role="line"
           id="tspan76155"
           x="347.80615"
           y="335.67725"
           style="font-style:normal;font-variant:normal;font-weight:bold;font-stretch:normal;font-size:18.6667px;font-family:Roboto;-inkscape-font-specification:'Roboto Bold'">2</tspan></text>
    </g>
    <g
       id="g71746"
       transform="translate(-185.58658,213.9397)">
      <circle
         style="opacity:1;fill:#ff5722;fill-opacity:1;stroke:none;stroke-width:2.64567;stroke-linecap:round;stroke-linejoin:round;stroke-miterlimit:4;stroke-dasharray:none;stroke-opacity:1;paint-order:stroke fill markers"
         id="path44363"
         cx="467.17834"
         cy="459.36642"
         r="21.213615" />
      <path
         d="m 477.63938,460.86086 h -8.96659 v 8.96659 h -2.98887 v -8.96659 h -8.96659 v -2.98887 h 8.96659 v -8.96659 h 2.98887 v 8.96659 h 8.96659 z"
         id="path48870"
         style="fill:#ffffff;stroke-width:1.49443" />
    </g>
  </g>
  <g
     inkscape:groupmode="layer"
     inkscape:label="Image"
     id="g880"
     transform="translate(-129.10882,-147.40948)">
    <ellipse
       style="opacity:1;fill:#f3f3f3;fill-opacity:1;stroke:none;stroke-width:0.892326;stroke-linecap:round;stroke-linejoin:round;stroke-miterlimit:4;stroke-dasharray:none;stroke-opacity:1;paint-order:stroke fill markers"
       id="path25492"
       cx="353.2424"
       cy="623.46002"
       rx="12.339069"
       ry="11.779675" />
    <path
       style="fill:url(#radialGradient91836);fill-opacity:1;fill-rule:evenodd;stroke:#000000;stroke-width:0.590236px;stroke-linecap:butt;stroke-linejoin:miter;stroke-opacity:1"
       d="m 378.86289,561.63678 c 0,0 -3.36739,1.43293 -4.48158,3.56416 5.93168,11.80288 9.00728,21.05753 11.00335,31.06895 1.41101,7.0771 2.14973,12.51053 7.71738,19.6031 3.0078,3.83159 15.00989,4.76146 19.57215,-1.0827 2.60047,-3.33113 2.3095,-16.80449 2.3095,-16.80449"
       id="path23020"
       sodipodi:nodetypes="ccsscc" />
    <path
       id="path1515"
       style="fill:url(#radialGradient86334);fill-opacity:1;fill-rule:evenodd;stroke:none;stroke-width:0.590236px;stroke-linecap:butt;stroke-linejoin:miter;stroke-opacity:1"
       d="m 344.74806,232.63837 -2.41993,6.54804 -5.33332,13.80463 c 4.35303,1.96913 7.76945,1.50078 11.60298,2.11942 5.55663,0.32844 13.63946,1.61934 19.47756,1.41562 l -0.1308,-6.20803 z"
       sodipodi:nodetypes="ccccccc" />
    <path
       style="fill:url(#radialGradient88781);fill-opacity:1;fill-rule:evenodd;stroke:none;stroke-width:0.590236px;stroke-linecap:butt;stroke-linejoin:miter;stroke-opacity:1"
       d="m 369.99285,400.35767 c 0,0 18.65439,-4.36946 28.14277,-4.28003 5.47243,0.0515 16.18201,2.77405 16.18201,2.77405 4.1642,0.71387 9.03268,0.86951 13.39945,0.7804 6.16994,-0.12592 13.34237,12.0253 14.42091,21.73669 0.87423,7.8715 -12.7377,76.97288 -23.24393,117.41751 l -4.3465,9.98032 -23.89952,-8.20232 c 1.67596,-12.13815 6.24353,-19.85004 7.50881,-31.9103 0.99109,-9.44689 -7.33499,-39.39072 -7.64288,-59.6841 l -17.08713,-0.32943 z"
       id="path13163"
       sodipodi:nodetypes="csssscccsccc" />
    <path
       style="fill:none;fill-rule:evenodd;stroke:#5662a4;stroke-width:2;stroke-linecap:butt;stroke-linejoin:round;stroke-miterlimit:4;stroke-dasharray:none;stroke-opacity:1"
       d="m 378.28005,428.83687 22.71489,-8.99666 8.42255,-1.32716 0.42866,8.68443 7.62708,-4.90566 -3.87518,21.62642 -15.01816,36.93055 1.78678,27.78687 -9.71863,31.92863"
       id="path15968" />
    <path
       style="opacity:1;fill:url(#radialGradient107517);fill-opacity:1;fill-rule:evenodd;stroke:none;stroke-width:0.590236px;stroke-linecap:butt;stroke-linejoin:miter;stroke-opacity:1"
       d="m 342.0825,239.8479 c -2.76522,1.49747 0.43319,1.32825 -5.69798,4.29295 -1.38333,2.54421 0.77897,9.63362 -3.15383,12.07019 -10.38332,6.12271 -16.68126,7.94847 -16.68126,7.94847 -6.34866,-0.96485 -9.56822,1.10883 -11.54686,5.44202 -6.78311,26.49354 -13.18619,51.06963 -20.41721,79.49349 -6.63751,26.09079 -17.97978,53.36764 -29.39354,80.66253 l 23.69789,14.77829 11.043,-29.73922 80.06014,-14.43895 -0.0583,-21.22134 c 1.5017,6.82213 2.77637,13.69024 8.17946,19.72211 l 36.20357,-0.007 c -8.89794,-15.07711 -18.74992,-29.92668 -20.78606,-47.0254 l -3.96542,-33.30006 c -1.98377,-16.65892 2.03995,-33.945 -2.07764,-49.56046 -2.06501,-7.83131 -13.72074,-1.95352 -14.16732,-11.79523 -0.10851,-2.39131 0.84445,-3.6802 -1.46417,-9.06427 -0.992,0.66929 -2.13144,1.08133 -3.91242,2.21203 1.94749,10.75468 -19.34676,4.79241 -28.64385,0.39241 -0.31678,-2.06069 1.50814,-8.09329 2.7818,-10.86256 z"
       id="path7859"
       sodipodi:nodetypes="cccccscccccccsssscccc" />
    <path
       style="fill:none;fill-rule:evenodd;stroke:#981b46;stroke-width:2.23081;stroke-linecap:square;stroke-linejoin:miter;stroke-miterlimit:4;stroke-dasharray:none;stroke-opacity:1"
       d="m 361.60809,257.34877 c 0,0 -0.90101,14.88705 3.93862,17.62616 1.99922,5.94588 -6.09554,29.14207 -6.09554,29.14207"
       id="path10661"
       sodipodi:nodetypes="ccc" />
    <path
       style="fill:none;fill-opacity:1;fill-rule:evenodd;stroke:#981b46;stroke-width:2.23081;stroke-linecap:butt;stroke-linejoin:miter;stroke-miterlimit:4;stroke-dasharray:none;stroke-opacity:1"
       d="m 342.0825,239.8479 c -1.98814,-0.83049 -4.18879,3.41849 -4.76994,4.98345 -2.7247,8.96269 11.36152,12.56345 32.37963,11.61945 5.11784,-0.33544 1.88755,-6.54544 1.17278,-7.67549"
       id="path10659"
       sodipodi:nodetypes="cccc" />
    <path
       style="fill:none;fill-rule:evenodd;stroke:#981b46;stroke-width:2;stroke-linecap:round;stroke-linejoin:round;stroke-miterlimit:4;stroke-dasharray:none;stroke-opacity:1"
       d="m 383.28199,283.16239 c 0,0 5.36491,20.72967 3.40818,29.79591 -2.0472,9.48536 -8.51942,16.17562 -11.18223,26.00705 -3.53408,13.04846 -5.57335,40.17098 -5.57335,40.17098 v 0"
       id="path11407"
       sodipodi:nodetypes="csscc" />
    <path
       style="fill:none;fill-rule:evenodd;stroke:#981b46;stroke-width:2;stroke-linecap:butt;stroke-linejoin:round;stroke-miterlimit:4;stroke-dasharray:none;stroke-opacity:1"
       d="m 334.91315,300.4347 -9.95509,10.80111 c 0,0 -7.71937,30.63384 -11.09649,46.06169 -5.5921,25.5467 -23.92886,57.49912 -23.92886,57.49912"
       id="path12392"
       sodipodi:nodetypes="ccsc" />
    <path
       style="fill:url(#radialGradient87368);fill-opacity:1;fill-rule:evenodd;stroke:none;stroke-width:0.590236px;stroke-linecap:butt;stroke-linejoin:miter;stroke-opacity:1"
       d="m 278.88971,444.53584 c -7.3496,-4.45967 -16.96585,-18.68479 -37.50858,-16.15542 0,0 -9.30253,9.05719 -11.4611,15.30357 -1.90775,5.52055 -0.73118,17.5178 -0.73118,17.5178 0.18571,7.88038 14.39382,11.791 18.4357,0.89384 l 5.34995,-13.29255 6.38192,0.0665 18.15385,0.0453 z"
       id="path16708"
       sodipodi:nodetypes="ccssscccc" />
    <path
       style="fill:url(#linearGradient80359);fill-opacity:1;fill-rule:evenodd;stroke:none;stroke-width:0.590236px;stroke-linecap:butt;stroke-linejoin:miter;stroke-opacity:1"
       d="m 347.99185,569.25078 c 0,0 -1.6161,8.05652 -2.66638,12.16163 -1.23999,4.84652 -2.45517,9.36237 -3.64495,14.22145 -2.33918,9.55314 -0.83719,28.47603 -0.83719,28.47603 9.00646,-7.88142 16.87881,-5.47054 24.07287,0.14091 0,0 3.08207,-15.41697 3.03438,-23.30074 -0.055,-9.09169 -1.98702,-27.4043 -1.98702,-27.4043 z"
       id="path20076"
       sodipodi:nodetypes="cssccscc" />
    <path
       style="fill:url(#radialGradient87765);fill-opacity:1;fill-rule:evenodd;stroke:none;stroke-width:0.590236px;stroke-linecap:butt;stroke-linejoin:miter;stroke-opacity:1"
       d="m 369.99285,400.35767 -36.63157,3.44171 c -13.51664,1.26995 -34.11045,3.75523 -43.42857,10.99724 l -11.043,29.73922 -1.37944,4.37918 c 17.84226,-1.60275 45.82525,7.59492 61.35629,3.62779 -7.07018,28.23094 5.08842,59.1131 7.41211,88.70019 0.28921,3.68236 -1.32808,7.93738 -3.28296,12.37062 l 4.99614,15.63716 h 20.97286 c 2.95528,-23.63827 13.27963,-57.11196 11.31717,-70.09251 -0.4861,-3.21526 0.19497,-6.77886 0.18885,-10.03066 -0.0229,-12.18847 3.1511,-23.61314 3.68296,-35.79001 0.4409,-10.09384 1.04229,-22.49845 2.22659,-31.39112 1.87219,-14.05807 -8.37162,-22.34194 -16.38743,-21.58881 z"
       id="path13161"
       sodipodi:nodetypes="ssccccscccsssss" />
    <path
       style="fill:#ffffff;fill-opacity:1;fill-rule:evenodd;stroke:#000000;stroke-width:0.590236px;stroke-linecap:butt;stroke-linejoin:miter;stroke-opacity:1"
       d="m 414.42857,594.55841 c 2.08851,9.93018 -0.762,19.31981 -1.508,19.83905 -6.33306,4.40801 -16.08341,-2.49037 -16.83661,-4.64644 -0.77229,-2.21073 -3.28964,-8.84062 -3.28964,-8.84062"
       id="path23022"
       sodipodi:nodetypes="cssc" />
    <path
       style="fill:url(#linearGradient80783);fill-opacity:1;fill-rule:evenodd;stroke:none;stroke-width:0.590236px;stroke-linecap:butt;stroke-linejoin:miter;stroke-opacity:1"
       d="m 394.62323,545.43284 c -4.0389,6.9735 -8.0021,14.04495 -15.76034,16.20394 0,0 11.21695,22.38408 12.12197,32.39433 0.62894,6.95661 2.78214,9.08774 2.78214,9.08774 0,0 15.01979,-10.71888 21.21667,-5.13305 l -3.66831,-17.79435 c -1.12293,-5.44713 4.47406,-23.87253 3.2322,-31.42484 z"
       id="path20078"
       sodipodi:nodetypes="ccsccscc"
       inkscape:original-d="m 661.86779,297.28377 c -2.49375,4.30566 -4.94076,8.67181 -9.73094,10.00484 0,0 6.9257,13.82065 7.48449,20.00131 0.38833,4.29524 1.71779,5.61107 1.71779,5.61107 0,0 9.2737,-6.61818 13.09986,-3.16932 l -2.26494,-10.9868 c -0.69333,-3.36324 2.76243,-14.73968 1.99567,-19.40272 z" />
    <path
       style="fill:none;fill-rule:evenodd;stroke:#ffffff;stroke-width:2.67697;stroke-linecap:round;stroke-linejoin:round;stroke-miterlimit:4;stroke-dasharray:none;stroke-opacity:1"
       d="m 360.06437,584.83014 -9.52103,10.91192 8.12882,12.40996"
       id="path22032"
       sodipodi:nodetypes="ccc" />
    <path
       style="fill:none;fill-rule:evenodd;stroke:#ffffff;stroke-width:2.67722;stroke-linecap:round;stroke-linejoin:round;stroke-miterlimit:4;stroke-dasharray:none;stroke-opacity:1"
       d="m 351.20094,583.82492 8.73022,10.82894 -8.75607,12.46713"
       id="path22034"
       sodipodi:nodetypes="ccc" />
    <path
       style="fill:none;fill-rule:evenodd;stroke:#ffffff;stroke-width:2.67697;stroke-linecap:round;stroke-linejoin:miter;stroke-miterlimit:4;stroke-dasharray:none;stroke-opacity:1"
       d="m 411.77668,558.44958 1.65601,3.4193"
       id="path22342"
       sodipodi:nodetypes="cc" />
    <path
       style="fill:none;fill-rule:evenodd;stroke:#ffffff;stroke-width:2.67697;stroke-linecap:round;stroke-linejoin:round;stroke-miterlimit:4;stroke-dasharray:none;stroke-opacity:1"
       d="m 410.85501,571.40314 -3.38372,2.9505 4.24604,4.83458"
       id="path22344" />
    <path
       style="fill:none;fill-rule:evenodd;stroke:#ffffff;stroke-width:2.67697;stroke-linecap:round;stroke-linejoin:miter;stroke-miterlimit:4;stroke-dasharray:none;stroke-opacity:1"
       d="m 411.98743,584.09966 -3.27121,4.47109"
       id="path22346" />
    <ellipse
       style="opacity:1;fill:#ffffff;fill-opacity:1;stroke:none;stroke-width:0.892326;stroke-linecap:round;stroke-linejoin:round;stroke-miterlimit:4;stroke-dasharray:none;stroke-opacity:1;paint-order:stroke fill markers"
       id="path22522"
       cx="396.70523"
       cy="561.94769"
       rx="4.4260826"
       ry="5.2254276" />
    <path
       style="fill:url(#radialGradient106443);fill-opacity:1;fill-rule:evenodd;stroke:none;stroke-width:0.590236px;stroke-linecap:butt;stroke-linejoin:miter;stroke-opacity:1"
       d="m 392.5999,530.22386 c 0.48028,0.25194 -0.72168,3.06396 -0.23492,3.31405 7.63978,3.92529 16.32666,5.32181 26.25516,5.02364 0.90664,-0.0272 0.43235,-2.57397 1.35775,-2.63453 l -0.0935,13.63325 c -13.15365,4.27585 -27.39892,-1.13181 -32.42946,-6.74782 0,0 2.03109,-8.79845 3.39268,-11.95308 0.24622,-0.57042 1.75217,-0.63551 1.75217,-0.63551 z"
       id="path17935"
       sodipodi:nodetypes="csscccsc" />
    <path
       style="fill:url(#radialGradient106197);fill-opacity:1;fill-rule:evenodd;stroke:none;stroke-width:0.590236px;stroke-linecap:butt;stroke-linejoin:miter;stroke-opacity:1"
       d="m 373.0869,548.32401 1.17164,4.56451 c -0.85967,6.20927 0.32182,17.75501 -2.84069,18.6835 -11.20341,3.72411 -19.99233,3.04463 -29.3323,-3.712 0,0 -0.1516,-9.60786 0.91016,-14.2464 0.51735,-2.26028 2.6203,-6.44382 2.6203,-6.44382 8.22004,5.714 17.81028,3.63412 27.47089,1.15421 z"
       id="path17933"
       sodipodi:nodetypes="ccccscc" />
    <path
       style="fill:url(#radialGradient93117);fill-opacity:1;fill-rule:evenodd;stroke:#000000;stroke-width:0.590236px;stroke-linecap:butt;stroke-linejoin:miter;stroke-opacity:1"
       d="m 340.84333,624.10989 c 0,0 3.38829,9.16834 11.84512,9.20756 7.88861,0.0365 12.22775,-9.06672 12.22775,-9.06672 0.75891,4.57862 0.6653,10.9889 0.6653,10.9889 0,0 -5.46942,6.01201 -12.23593,6.41956 -4.5637,0.27489 -10.56587,-2.19821 -12.61862,-6.28347 -0.28412,-4.75913 0.11647,-11.26583 0.11647,-11.26583"
       id="path23024"
       sodipodi:nodetypes="csccscc" />
    <path
       style="fill:none;fill-rule:evenodd;stroke:#202e89;stroke-width:1.56131;stroke-linecap:round;stroke-linejoin:miter;stroke-miterlimit:4;stroke-dasharray:none;stroke-opacity:1"
       d="m 384.31485,448.88861 2.12472,-30.43002 c -2.88512,-15.9058 -10.48632,-18.70871 -16.44672,-18.10092"
       id="path25747"
       sodipodi:nodetypes="ccc" />
    <path
       style="fill:none;fill-rule:evenodd;stroke:#5662a4;stroke-width:2;stroke-linecap:butt;stroke-linejoin:round;stroke-miterlimit:4;stroke-dasharray:none;stroke-opacity:1"
       d="m 293.49821,412.56204 6.68865,13.51683 2.95313,1.03759 -1.18243,6.21378 5.90813,-5.16427 4.92832,2.56037 28.65874,-4.88906 4.8899,-6.29778 -6.03884,14.1412 -1.43725,18.86211"
       id="path14418"
       sodipodi:nodetypes="cccccccccc" />
    <path
       style="display:inline;fill:#141a21;fill-opacity:1;fill-rule:evenodd;stroke:none;stroke-width:0.505203px;stroke-linecap:butt;stroke-linejoin:miter;stroke-opacity:1"
       d="m 406.16878,211.01258 -20.95233,21.41792 3.15962,6.61422 -4.68182,3.41606 c 1.77109,1.67404 6.98367,1.37956 9.24484,0.28586 -0.0416,4.58221 -3.71413,5.3255 -6.67692,6.81922 10.53276,0.0751 25.89356,-1.0653 22.50617,-17.75971 0.14398,1.24861 0.88084,2.3119 2.59993,3.06823 -3.41101,-5.52581 -4.3764,-18.48931 -5.19949,-23.8618 z"
       id="path81155"
       sodipodi:nodetypes="ccccccccc" />
    <path
       style="fill:url(#radialGradient98933);fill-opacity:1;fill-rule:evenodd;stroke:none;stroke-width:0.590236px;stroke-linecap:butt;stroke-linejoin:miter;stroke-opacity:1"
       d="m 400.16872,213.01262 -15.63841,-28.16172 -53.47592,30.62242 c 5.28627,11.1926 2.62889,20.18918 32.99636,38.98722 19.02137,-9.18534 27.77173,-22.46258 36.11797,-41.44792 z"
       id="path1016"
       sodipodi:nodetypes="ccccc" />
    <path
       style="fill:url(#radialGradient85608);fill-opacity:1;fill-rule:evenodd;stroke:none;stroke-width:0.590236px;stroke-linecap:butt;stroke-linejoin:miter;stroke-opacity:1"
       d="m 339.25585,161.40322 c -7.9378,-9.2737 -14.92899,5.52792 -33.27532,7.59717 4.92733,0.51567 5.99325,2.83427 18.05932,0.0167 -2.68449,1.8006 -5.68473,7.6956 -16.17101,8.42648 6.6481,0.87909 11.3249,3.31249 16.24169,0.61648 -4.9183,23.58603 -28.63365,32.94438 -23.15246,42.52956 3.50913,-5.65301 5.95016,-6.20767 8.59077,-7.83623 -3.78383,6.68633 -7.83615,15.22709 -13.95772,17.78385 4.72331,1.74309 9.02659,-0.0801 13.20868,-2.93212 1.24862,2.06214 1.31622,4.34723 -2.13928,7.39058 2.96486,-0.77184 8.09919,-3.15912 9.05905,-4.88671 0.73182,4.59626 -1.64382,7.89855 -3.72046,11.81068 6.93625,-0.70259 11.00906,0.0783 14.88228,-12.79105 1.89854,3.38043 1.4744,5.79739 0.3688,9.88318 6.29842,-3.05094 7.98531,-11.72809 8.26369,-22.12367 0.28299,3.87023 -0.15986,7.97039 2.23805,11.17077 -2.31434,-6.80441 3.98072,-12.44965 6.58501,-18.59181 1.41308,3.74964 1.38389,7.5664 -1.29827,11.50665 11.66231,-3.34875 18.00151,-14.56322 22.53836,-22.86478 0.58662,1.27261 2.20109,1.4268 0.13344,5.58765 9.42338,-3.35827 13.57088,-11.62065 18.81987,-18.84571 2.98627,9.66853 4.25984,22.63013 -2.48524,27.74426 4.13654,-0.63637 8.18448,-3.74099 10.9372,-8.34428 -2.64758,7.43064 -4.92676,15.05115 -15.65942,18.44697 9.67211,2.59897 20.33927,0.42657 26.4802,-7.56673 0.69484,1.62178 1.50949,2.9769 1.07678,7.10832 7.99749,-9.93423 13.41968,-20.59279 -5.74314,-49.54212 2.75559,-0.59383 5.56469,-0.76573 9.19846,5.56283 2.58497,-8.03592 -2.635,-13.42359 -21.37416,-15.51484 -20.77748,-10.61569 -21.69087,-8.18896 -33.3187,-5.01632 2.98133,-5.909 -0.50014,-8.47278 -5.36698,-10.3195 2.51376,4.44935 -1.51811,9.38565 -4.22224,14.22318 -2.30446,-2.32719 -2.0031,-5.19981 -1.63795,-8.08578 -1.39503,1.83067 -3.45492,2.12905 -3.15925,7.85633 z"
       id="path1799"
       sodipodi:nodetypes="ccccccccccccccccccccccccccccccccccc" />
    <text
       xml:space="preserve"
       style="font-style:normal;font-weight:normal;font-size:13.3333px;line-height:25px;font-family:sans-serif;letter-spacing:0px;word-spacing:0px;fill:#000000;fill-opacity:1;stroke:none;stroke-width:1px;stroke-linecap:butt;stroke-linejoin:miter;stroke-opacity:1"
       x="81.708305"
       y="36.840881"
       id="text110341"><tspan
         sodipodi:role="line"
         id="tspan110339"
         x="81.708305"
         y="36.840881" /></text>
    <path
       style="fill:none;fill-rule:evenodd;stroke:none;stroke-width:1px;stroke-linecap:butt;stroke-linejoin:miter;stroke-opacity:1"
       d="m 380.68225,189.63805 -5.94625,32.72009 -10.68525,32.1024 33.40329,-35.67463 z"
       id="path9126" />
  </g>
</svg>
